<?xml version="1.0" encoding="UTF-8" standalone="no"?>
<!-- Created with Inkscape (http://www.inkscape.org/) -->

<svg
   width="512"
   height="512"
   viewBox="0 0 512 512"
   version="1.1"
   id="svg5"
   inkscape:version="1.1 (c68e22c387, 2021-05-23)"
   sodipodi:docname="univai_icon.svg"
   xmlns:inkscape="http://www.inkscape.org/namespaces/inkscape"
   xmlns:sodipodi="http://sodipodi.sourceforge.net/DTD/sodipodi-0.dtd"
   xmlns="http://www.w3.org/2000/svg"
   xmlns:svg="http://www.w3.org/2000/svg">
  <sodipodi:namedview
     id="namedview7"
     pagecolor="#505050"
     bordercolor="#ffffff"
     borderopacity="1"
     inkscape:pageshadow="0"
     inkscape:pageopacity="0"
     inkscape:pagecheckerboard="1"
     inkscape:document-units="px"
     showgrid="false"
     units="px"
     inkscape:zoom="0.67081229"
     inkscape:cx="-218.39194"
     inkscape:cy="398.77027"
     inkscape:window-width="1920"
     inkscape:window-height="1057"
     inkscape:window-x="1358"
     inkscape:window-y="-8"
     inkscape:window-maximized="1"
     inkscape:current-layer="g1125" />
  <defs
     id="defs2" />
  <g
     inkscape:label="Foreground"
     inkscape:groupmode="layer"
     id="g1125"
     style="display:inline">
    <g
       id="g48314"
       transform="matrix(1.2740909,0,0,1.2740909,-70.16727,-23.994419)">
      <path
         id="ellipse1123"
         style="fill:#8946ed;fill-opacity:1;stroke:#000000;stroke-width:4.21255;stroke-opacity:1;stop-color:#000000"
         d="m 400.74022,141.24711 c -17.41147,43.64272 -52.20634,65.13742 -76.75497,75.34698 l -0.69191,54.59471 c 0.0943,0.36294 0.18736,0.66179 0.2816,1.02179 a 72.154746,81.365991 0 0 1 -52.29905,58.44319 72.154746,81.365991 0 0 1 -15.2759,2.3976 72.154746,81.365991 0 0 1 -46.19511,-21.57292 c -25.47414,32.04219 -47.51832,46.99747 -65.77809,52.5109 a 142.26255,136.12172 0 0 0 109.15724,49.46162 142.26255,136.12172 0 0 0 2.81596,-0.21722 142.26255,136.12172 0 0 0 2.81597,0.21722 142.26255,136.12172 0 0 0 22.25411,-1.67616 142.26255,136.12172 0 0 0 113.04594,-92.38219 142.26255,136.12172 0 0 0 6.96213,-42.06235 142.26255,136.12172 0 0 0 -0.23601,-2.90446 c 0.025,-0.13745 0.23598,-1.18807 0.23601,-1.18807 z" />
      <path
         id="path9020"
         style="fill:#6b89e9;fill-opacity:1;stroke:#000000;stroke-width:4.21255;stroke-opacity:1;stop-color:#000000"
         d="m 124.73883,26.069075 c -7.37109,0 -13.30474,5.933695 -13.30474,13.304725 v 31.216909 c 0,0.69573 0.0697,1.371865 0.17164,2.03821 l -0.17164,0.0082 -0.21723,85.500521 c 23.6449,-31.62276 53.50921,-54.3416 75.18875,-68.229307 l -0.25746,-20.341938 -0.32451,0.01373 V 39.374322 c 0,-7.37103 -5.93368,-13.304725 -13.30472,-13.304725 z" />
      <path
         id="ellipse1123-3"
         style="display:inline;fill:#3c55a9;fill-opacity:1;stroke:#000000;stroke-width:4.21255;stroke-opacity:1;stop-color:#000000"
         d="m 172.51892,26.069075 c 1.84276,0 3.59657,0.371784 5.18941,1.043251 -1.59284,-0.671467 -3.34665,-1.043251 -5.18941,-1.043251 z m 13.88669,63.839105 c -21.67954,13.88771 -51.54385,36.60655 -75.18875,68.22931 l -0.295,115.10026 c 0,0 0.21101,1.05062 0.236,1.18807 a 142.26255,136.12172 0 0 0 -0.236,2.90446 142.26255,136.12172 0 0 0 33.10493,86.65908 c 18.25977,-5.51343 40.30395,-20.46871 65.77809,-52.5109 a 72.154746,81.365991 0 0 1 -21.37983,-39.26787 c 0.0942,-0.36 0.18726,-0.65885 0.2816,-1.02179 l -1.02447,-80.73484 v -30.65639 a 142.26255,136.12172 0 0 0 -0.38619,0.24672 z m -42.37882,274.08118 a 142.26255,136.12172 0 0 0 14.18706,14.18974 142.26255,136.12172 0 0 1 -14.18706,-14.18974 z m 74.67652,-44.75495 a 72.154746,81.365991 0 0 0 2.60945,1.87194 72.154746,81.365991 0 0 1 -2.60945,-1.87194 z m 11.20482,6.92993 a 72.154746,81.365991 0 0 0 4.96145,2.057 72.154746,81.365991 0 0 1 -4.96145,-2.057 z m 12.61817,4.77104 a 72.154746,81.365991 0 0 0 13.47369,2.116 72.154746,81.365991 0 0 1 -13.47369,-2.116 z m -83.70634,47.73719 a 142.26255,136.12172 0 0 0 15.65135,11.66074 142.26255,136.12172 0 0 1 -15.65135,-11.66074 z m 17.04325,12.47603 a 142.26255,136.12172 0 0 0 16.61146,9.00303 142.26255,136.12172 0 0 1 -16.61146,-9.00303 z m 19.06269,9.97386 a 142.26255,136.12172 0 0 0 16.94133,6.27288 142.26255,136.12172 0 0 1 -16.94133,-6.27288 z m 21.19745,7.25176 a 142.26255,136.12172 0 0 0 16.13142,3.49983 142.26255,136.12172 0 0 1 -16.13142,-3.49983 z" />
      <path
         id="ellipse1123-2"
         style="display:inline;fill:#3c55a9;fill-opacity:1;stroke:#000000;stroke-width:4.21255;stroke-opacity:1;stop-color:#000000"
         d="m 389.66412,26.307763 c 0.27352,0.05026 0.5373,0.123718 0.80455,0.19041 -0.26807,-0.06632 -0.53024,-0.140579 -0.80455,-0.19041 z m 2.26618,0.64097 c 0.29551,0.11136 0.59195,0.222706 0.87697,0.354003 -0.28655,-0.131407 -0.57979,-0.242808 -0.87697,-0.354003 z m 2.19108,1.067377 c 0.23156,0.140058 0.47784,0.256992 0.69996,0.410328 -0.22247,-0.153583 -0.46786,-0.270256 -0.69996,-0.410328 z m 0.69996,0.410328 c -15.07778,8.140345 -45.35542,26.183195 -69.09823,51.18606 L 324.704,160.04429 a 142.26255,136.12172 0 0 0 -0.38619,-0.24672 v 30.65639 l -0.33256,26.14013 c 24.54863,-10.20956 59.3435,-31.70426 76.75497,-75.34698 l -0.17432,-68.610144 -0.17164,-0.0082 c 0.10189,-0.666345 0.17164,-1.34248 0.17164,-2.03821 V 39.373608 c 0,-4.555253 -2.27344,-8.551236 -5.74456,-10.947362 z M 174.21117,347.68094 c -5.48889,4.21664 -10.753,7.60422 -15.78545,10.28228 5.03245,-2.67806 10.29656,-6.06564 15.78545,-10.28228 z" />
    </g>
  </g>
</svg>
