<?xml version="1.0" encoding="UTF-8" standalone="no"?>
<!-- Created with Inkscape (http://www.inkscape.org/) -->

<svg
   width="720"
   height="720"
   viewBox="0 0 720 720"
   version="1.1"
   id="svg5"
   inkscape:version="1.1 (c68e22c387, 2021-05-23)"
   sodipodi:docname="univai_logo_720.svg"
   inkscape:export-filename="C:\Users\Muyoba Lutlas\Documents\PotentialThings\Practice\Vite\reactonthebeginnings\src\assets\univai_logo.png"
   inkscape:export-xdpi="96"
   inkscape:export-ydpi="96"
   xmlns:inkscape="http://www.inkscape.org/namespaces/inkscape"
   xmlns:sodipodi="http://sodipodi.sourceforge.net/DTD/sodipodi-0.dtd"
   xmlns="http://www.w3.org/2000/svg"
   xmlns:svg="http://www.w3.org/2000/svg">
  <sodipodi:namedview
     id="namedview7"
     pagecolor="#505050"
     bordercolor="#ffffff"
     borderopacity="1"
     inkscape:pageshadow="0"
     inkscape:pageopacity="0"
     inkscape:pagecheckerboard="1"
     inkscape:document-units="px"
     showgrid="false"
     units="px"
     inkscape:zoom="0.67081229"
     inkscape:cx="307.09038"
     inkscape:cy="470.32531"
     inkscape:window-width="1305"
     inkscape:window-height="1003"
     inkscape:window-x="1470"
     inkscape:window-y="38"
     inkscape:window-maximized="1"
     inkscape:current-layer="g1125"
     inkscape:snap-global="false" />
  <defs
     id="defs2" />
  <g
     inkscape:label="Foreground"
     inkscape:groupmode="layer"
     id="g1125"
     style="display:inline"
     sodipodi:insensitive="true">
    <g
       id="g48516"
       style="stroke:none;stroke-opacity:1"
       transform="matrix(1.5153088,0,0,1.3714538,-27.91906,-22.554504)">
      <path
         id="ellipse1123"
         style="fill:#8946ed;fill-opacity:1;stroke:none;stroke-width:4.21255;stroke-opacity:1;stop-color:#000000"
         d="m 400.74022,141.24711 c -17.41147,43.64272 -52.20634,65.13742 -76.75497,75.34698 l -0.69191,54.59471 c 0.0943,0.36294 0.18736,0.66179 0.2816,1.02179 a 72.154746,81.365991 0 0 1 -52.29905,58.44319 72.154746,81.365991 0 0 1 -15.2759,2.3976 72.154746,81.365991 0 0 1 -46.19511,-21.57292 c -25.47414,32.04219 -47.51832,46.99747 -65.77809,52.5109 a 142.26255,136.12172 0 0 0 109.15724,49.46162 142.26255,136.12172 0 0 0 2.81596,-0.21722 142.26255,136.12172 0 0 0 2.81597,0.21722 142.26255,136.12172 0 0 0 22.25411,-1.67616 142.26255,136.12172 0 0 0 113.04594,-92.38219 142.26255,136.12172 0 0 0 6.96213,-42.06235 142.26255,136.12172 0 0 0 -0.23601,-2.90446 c 0.025,-0.13745 0.23598,-1.18807 0.23601,-1.18807 z" />
      <path
         id="path9020"
         style="fill:#6b89e9;fill-opacity:1;stroke:none;stroke-width:4.21255;stroke-opacity:1;stop-color:#000000"
         d="m 124.73883,26.069075 c -7.37109,0 -13.30474,5.933695 -13.30474,13.304725 v 31.216909 c 0,0.69573 0.0697,1.371865 0.17164,2.03821 l -0.17164,0.0082 -0.21723,85.500521 c 23.6449,-31.62276 53.50921,-54.3416 75.18875,-68.229307 l -0.25746,-20.341938 -0.32451,0.01373 V 39.374322 c 0,-7.37103 -5.93368,-13.304725 -13.30472,-13.304725 z" />
      <path
         id="ellipse1123-3"
         style="display:inline;fill:#3c55a9;fill-opacity:1;stroke:none;stroke-width:4.21255;stroke-opacity:1;stop-color:#000000"
         d="m 172.51892,26.069075 c 1.84276,0 3.59657,0.371784 5.18941,1.043251 -1.59284,-0.671467 -3.34665,-1.043251 -5.18941,-1.043251 z m 13.88669,63.839105 c -21.67954,13.88771 -51.54385,36.60655 -75.18875,68.22931 l -0.295,115.10026 c 0,0 0.21101,1.05062 0.236,1.18807 a 142.26255,136.12172 0 0 0 -0.236,2.90446 142.26255,136.12172 0 0 0 33.10493,86.65908 c 18.25977,-5.51343 40.30395,-20.46871 65.77809,-52.5109 a 72.154746,81.365991 0 0 1 -21.37983,-39.26787 c 0.0942,-0.36 0.18726,-0.65885 0.2816,-1.02179 l -1.02447,-80.73484 v -30.65639 a 142.26255,136.12172 0 0 0 -0.38619,0.24672 z m -42.37882,274.08118 a 142.26255,136.12172 0 0 0 14.18706,14.18974 142.26255,136.12172 0 0 1 -14.18706,-14.18974 z m 74.67652,-44.75495 a 72.154746,81.365991 0 0 0 2.60945,1.87194 72.154746,81.365991 0 0 1 -2.60945,-1.87194 z m 11.20482,6.92993 a 72.154746,81.365991 0 0 0 4.96145,2.057 72.154746,81.365991 0 0 1 -4.96145,-2.057 z m 12.61817,4.77104 a 72.154746,81.365991 0 0 0 13.47369,2.116 72.154746,81.365991 0 0 1 -13.47369,-2.116 z m -83.70634,47.73719 a 142.26255,136.12172 0 0 0 15.65135,11.66074 142.26255,136.12172 0 0 1 -15.65135,-11.66074 z m 17.04325,12.47603 a 142.26255,136.12172 0 0 0 16.61146,9.00303 142.26255,136.12172 0 0 1 -16.61146,-9.00303 z m 19.06269,9.97386 a 142.26255,136.12172 0 0 0 16.94133,6.27288 142.26255,136.12172 0 0 1 -16.94133,-6.27288 z m 21.19745,7.25176 a 142.26255,136.12172 0 0 0 16.13142,3.49983 142.26255,136.12172 0 0 1 -16.13142,-3.49983 z" />
      <path
         id="ellipse1123-2"
         style="display:inline;fill:#3c55a9;fill-opacity:1;stroke:none;stroke-width:4.21255;stroke-opacity:1;stop-color:#000000"
         d="m 389.66412,26.307763 c 0.27352,0.05026 0.5373,0.123718 0.80455,0.19041 -0.26807,-0.06632 -0.53024,-0.140579 -0.80455,-0.19041 z m 2.26618,0.64097 c 0.29551,0.11136 0.59195,0.222706 0.87697,0.354003 -0.28655,-0.131407 -0.57979,-0.242808 -0.87697,-0.354003 z m 2.19108,1.067377 c 0.23156,0.140058 0.47784,0.256992 0.69996,0.410328 -0.22247,-0.153583 -0.46786,-0.270256 -0.69996,-0.410328 z m 0.69996,0.410328 c -15.07778,8.140345 -45.35542,26.183195 -69.09823,51.18606 L 324.704,160.04429 a 142.26255,136.12172 0 0 0 -0.38619,-0.24672 v 30.65639 l -0.33256,26.14013 c 24.54863,-10.20956 59.3435,-31.70426 76.75497,-75.34698 l -0.17432,-68.610144 -0.17164,-0.0082 c 0.10189,-0.666345 0.17164,-1.34248 0.17164,-2.03821 V 39.373608 c 0,-4.555253 -2.27344,-8.551236 -5.74456,-10.947362 z M 174.21117,347.68094 c -5.48889,4.21664 -10.753,7.60422 -15.78545,10.28228 5.03245,-2.67806 10.29656,-6.06564 15.78545,-10.28228 z" />
    </g>
    <path
       style="display:inline;fill:#ffffff;fill-opacity:1;stroke:none;stroke-width:3.79201;stroke-opacity:1;stop-color:#000000"
       d="m 361.04356,617.0057 h 23.38147 l 12.31462,39.506 c 1.38358,4.46627 2.18979,8.26621 2.42039,11.39678 h 0.27757 c 0.32284,-2.9636 1.17688,-6.63833 2.56046,-11.02111 l 12.58962,-39.88167 h 22.8289 l -26.35699,64.11215 h -24.90426 z"
       id="path6022" />
    <path
       style="display:inline;fill:#ffffff;fill-opacity:1;stroke:none;stroke-width:3.79201;stroke-opacity:1;stop-color:#000000"
       d="m 336.33506,617.0057 h 21.86126 v 64.11215 h -21.86126 z"
       id="path6020" />
    <path
       style="display:inline;fill:#ffffff;fill-opacity:1;stroke:none;stroke-width:3.79201;stroke-opacity:1;stop-color:#000000"
       d="m 306.56953,615.43963 c 15.68053,0 23.51898,8.80645 23.51898,26.42109 v 39.25713 h -21.79122 v -35.62491 c 0,-9.93432 -3.91923,-14.90221 -11.75949,-14.90221 -3.78176,0 -6.89478,1.31482 -9.33909,3.94449 -2.44431,2.62967 -3.66561,5.9697 -3.66561,10.01855 v 36.56408 H 261.67185 V 617.0057 h 21.86125 v 10.14299 h 0.275 c 5.21146,-7.80554 12.79972,-11.70906 22.76143,-11.70906 z"
       id="path6018" />
    <path
       style="display:inline;fill:#ffffff;fill-opacity:1;stroke:none;stroke-width:3.79201;stroke-opacity:1;stop-color:#000000"
       d="m 524.21045,591.3336 c 0,-6.74086 22.34378,-6.74086 22.34378,0 0,33.54097 -0.089,63.03166 0,89.78425 0.0224,6.74083 -22.36863,6.74083 -22.34378,0 0.089,-24.14381 0,-57.80344 0,-89.78425 z"
       id="path6014" />
    <path
       id="path6012"
       style="display:inline;fill:#ffffff;fill-opacity:1;stroke:none;stroke-width:3.79201;stroke-opacity:1;stop-color:#000000"
       d="m 469.97562,585.69991 c -5.87,0.005 -11.75535,1.88679 -13.29539,5.63281 -13.17898,32.05671 -23.76528,61.08661 -36.11186,89.78516 -2.92829,6.80659 21.51512,6.88425 24.21268,0 2.93087,-7.47964 6.98758,-19.97071 6.98758,-19.97071 h 35.28103 l 7.05664,19.97071 c 2.47235,6.99756 27.36555,6.82113 24.35079,0 -11.47039,-25.95265 -22.25356,-56.56277 -35.28103,-89.78516 -1.47704,-3.76675 -7.33044,-5.63799 -13.20044,-5.63281 z m -0.91499,21.66211 h 0.55677 c 0.32283,3.13057 0.87547,5.82412 1.65949,8.07812 l 10.65401,30.17774 h -25.38879 l 10.79213,-30.42969 c 0.92239,-2.58794 1.49579,-5.19649 1.72639,-7.82617 z" />
    <path
       style="display:inline;fill:#ffffff;fill-opacity:1;stroke:none;stroke-width:3.79201;stroke-opacity:1;stop-color:#000000"
       d="m 173.44574,591.3336 h 22.41382 v 52.09317 c 0,14.52581 6.27128,21.78865 18.81569,21.78865 12.3138,0 18.47065,-7.01239 18.47065,-21.03732 v -52.8445 h 22.34638 v 50.90278 c 0,26.96458 -13.88347,40.44752 -41.64716,40.44752 -26.93359,0 -40.39938,-13.16989 -40.39938,-39.50835 z"
       id="path6010" />
    <path
       style="display:inline;fill:#ffffff;fill-opacity:1;stroke:none;stroke-width:3.79201;stroke-opacity:1;stop-color:#000000"
       d="m 347.40448,586.51332 c 3.73564,0 6.75556,0.93917 9.06152,2.8175 2.35207,1.87834 3.5281,4.2985 3.5281,7.26211 0,3.00534 -1.17603,5.46881 -3.5281,7.38888 -2.30596,1.92008 -5.32588,2.8809 -9.06152,2.8809 -3.68952,0 -6.71204,-0.98247 -9.06411,-2.94429 -2.35207,-2.00356 -3.5281,-4.44538 -3.5281,-7.32549 0,-2.96361 1.17603,-5.38377 3.5281,-7.26211 2.35207,-1.87833 5.37459,-2.8175 9.06411,-2.8175 z"
       id="path6008" />
  </g>
</svg>
