<?xml version="1.0" encoding="UTF-8" standalone="no"?>
<!-- Created with Inkscape (http://www.inkscape.org/) -->

<svg
   width="1920"
   height="1080"
   viewBox="0 0 1920 1080"
   version="1.1"
   id="svg5"
   inkscape:version="1.1 (c68e22c387, 2021-05-23)"
   sodipodi:docname="univai_background.svg"
   xmlns:inkscape="http://www.inkscape.org/namespaces/inkscape"
   xmlns:sodipodi="http://sodipodi.sourceforge.net/DTD/sodipodi-0.dtd"
   xmlns:xlink="http://www.w3.org/1999/xlink"
   xmlns="http://www.w3.org/2000/svg"
   xmlns:svg="http://www.w3.org/2000/svg">
  <sodipodi:namedview
     id="namedview7"
     pagecolor="#505050"
     bordercolor="#ffffff"
     borderopacity="1"
     inkscape:pageshadow="0"
     inkscape:pageopacity="0"
     inkscape:pagecheckerboard="1"
     inkscape:document-units="px"
     showgrid="false"
     units="px"
     inkscape:zoom="0.33540614"
     inkscape:cx="1065.872"
     inkscape:cy="678.28216"
     inkscape:window-width="1920"
     inkscape:window-height="1057"
     inkscape:window-x="1358"
     inkscape:window-y="-8"
     inkscape:window-maximized="1"
     inkscape:current-layer="g1125" />
  <defs
     id="defs2">
    <linearGradient
       inkscape:collect="always"
       id="linearGradient70197">
      <stop
         style="stop-color:#7388cd;stop-opacity:1;"
         offset="0"
         id="stop70193" />
      <stop
         style="stop-color:#000000;stop-opacity:1"
         offset="1"
         id="stop70195" />
    </linearGradient>
    <linearGradient
       inkscape:collect="always"
       id="linearGradient69870">
      <stop
         style="stop-color:#000000;stop-opacity:1;"
         offset="0"
         id="stop69866" />
      <stop
         style="stop-color:#000000;stop-opacity:0;"
         offset="1"
         id="stop69868" />
    </linearGradient>
    <linearGradient
       inkscape:collect="always"
       id="linearGradient69742-4-0">
      <stop
         style="stop-color:#7388cd;stop-opacity:1;"
         offset="0"
         id="stop69748" />
      <stop
         style="stop-color:#000000;stop-opacity:0"
         offset="1"
         id="stop69750" />
    </linearGradient>
    <linearGradient
       inkscape:collect="always"
       xlink:href="#linearGradient69870"
       id="linearGradient69872"
       x1="118.60538"
       y1="350.21823"
       x2="453.5332"
       y2="350.21823"
       gradientUnits="userSpaceOnUse" />
    <linearGradient
       inkscape:collect="always"
       xlink:href="#linearGradient69870"
       id="linearGradient69874"
       x1="78.828951"
       y1="116.06081"
       x2="180.03265"
       y2="116.06081"
       gradientUnits="userSpaceOnUse" />
    <linearGradient
       inkscape:collect="always"
       xlink:href="#linearGradient69870"
       id="linearGradient69876"
       x1="78.472993"
       y1="274.97858"
       x2="266.13297"
       y2="274.97858"
       gradientUnits="userSpaceOnUse" />
    <linearGradient
       inkscape:collect="always"
       xlink:href="#linearGradient69870"
       id="linearGradient69878"
       x1="140.42081"
       y1="240.66799"
       x2="453.0971"
       y2="240.66799"
       gradientUnits="userSpaceOnUse" />
    <linearGradient
       inkscape:collect="always"
       xlink:href="#linearGradient69870"
       id="linearGradient69884"
       x1="566.60538"
       y1="874.21822"
       x2="901.5332"
       y2="874.21822"
       gradientUnits="userSpaceOnUse" />
    <linearGradient
       inkscape:collect="always"
       xlink:href="#linearGradient69870"
       id="linearGradient69886"
       x1="526.82895"
       y1="640.06079"
       x2="628.03265"
       y2="640.06079"
       gradientUnits="userSpaceOnUse" />
    <linearGradient
       inkscape:collect="always"
       xlink:href="#linearGradient69870"
       id="linearGradient69888"
       x1="526.47299"
       y1="798.9786"
       x2="714.13297"
       y2="798.9786"
       gradientUnits="userSpaceOnUse" />
    <linearGradient
       inkscape:collect="always"
       xlink:href="#linearGradient69870"
       id="linearGradient69890"
       x1="588.42081"
       y1="764.66799"
       x2="901.0971"
       y2="764.66799"
       gradientUnits="userSpaceOnUse" />
    <linearGradient
       inkscape:collect="always"
       xlink:href="#linearGradient69870"
       id="linearGradient69894"
       x1="1058.6054"
       y1="874.21822"
       x2="1393.527"
       y2="874.21822"
       gradientUnits="userSpaceOnUse" />
    <linearGradient
       inkscape:collect="always"
       xlink:href="#linearGradient69870"
       id="linearGradient69896"
       x1="1018.8289"
       y1="640.06079"
       x2="1120.0326"
       y2="640.06079"
       gradientUnits="userSpaceOnUse" />
    <linearGradient
       inkscape:collect="always"
       xlink:href="#linearGradient69870"
       id="linearGradient69898"
       x1="1018.473"
       y1="798.9786"
       x2="1206.133"
       y2="798.9786"
       gradientUnits="userSpaceOnUse" />
    <linearGradient
       inkscape:collect="always"
       xlink:href="#linearGradient69870"
       id="linearGradient69900"
       x1="1080.4208"
       y1="764.66799"
       x2="1393.0971"
       y2="764.66799"
       gradientUnits="userSpaceOnUse" />
    <linearGradient
       inkscape:collect="always"
       xlink:href="#linearGradient69870"
       id="linearGradient69902"
       x1="1506.6054"
       y1="350.21823"
       x2="1841.527"
       y2="350.21823"
       gradientUnits="userSpaceOnUse" />
    <linearGradient
       inkscape:collect="always"
       xlink:href="#linearGradient69870"
       id="linearGradient69904"
       x1="1466.8289"
       y1="116.06081"
       x2="1568.0326"
       y2="116.06081"
       gradientUnits="userSpaceOnUse" />
    <linearGradient
       inkscape:collect="always"
       xlink:href="#linearGradient69870"
       id="linearGradient69906"
       x1="1466.473"
       y1="274.97858"
       x2="1654.133"
       y2="274.97858"
       gradientUnits="userSpaceOnUse" />
    <linearGradient
       inkscape:collect="always"
       xlink:href="#linearGradient69870"
       id="linearGradient69908"
       x1="1528.4208"
       y1="240.66799"
       x2="1841.0971"
       y2="240.66799"
       gradientUnits="userSpaceOnUse" />
    <radialGradient
       inkscape:collect="always"
       xlink:href="#linearGradient69742-4-0"
       id="radialGradient70172"
       cx="-962.65631"
       cy="542.60632"
       fx="-962.65631"
       fy="542.60632"
       r="975.11377"
       gradientTransform="matrix(-0.26825059,0.14444194,-0.33611064,-0.62420838,-1038.5136,1020.3538)"
       gradientUnits="userSpaceOnUse" />
    <linearGradient
       inkscape:collect="always"
       xlink:href="#linearGradient70197"
       id="linearGradient70199"
       x1="-1010.536"
       y1="-819.9209"
       x2="-1224.2312"
       y2="683.45361"
       gradientUnits="userSpaceOnUse"
       gradientTransform="translate(1.046875e-4,7.3242188e-5)" />
    <linearGradient
       inkscape:collect="always"
       xlink:href="#linearGradient69870"
       id="linearGradient70371"
       gradientUnits="userSpaceOnUse"
       x1="68.472993"
       y1="256"
       x2="443.5332"
       y2="256"
       gradientTransform="translate(10,544)" />
    <linearGradient
       inkscape:collect="always"
       xlink:href="#linearGradient69870"
       id="linearGradient70373"
       gradientUnits="userSpaceOnUse"
       x1="68.472993"
       y1="256"
       x2="443.5332"
       y2="256"
       gradientTransform="translate(10,544)" />
    <linearGradient
       inkscape:collect="always"
       xlink:href="#linearGradient69870"
       id="linearGradient70375"
       gradientUnits="userSpaceOnUse"
       x1="68.472993"
       y1="256"
       x2="443.5332"
       y2="256"
       gradientTransform="translate(10,544)" />
    <linearGradient
       inkscape:collect="always"
       xlink:href="#linearGradient69870"
       id="linearGradient70377"
       gradientUnits="userSpaceOnUse"
       x1="68.472993"
       y1="256"
       x2="443.5332"
       y2="256"
       gradientTransform="translate(10,544)" />
    <linearGradient
       inkscape:collect="always"
       xlink:href="#linearGradient69870"
       id="linearGradient70379"
       gradientUnits="userSpaceOnUse"
       x1="68.472993"
       y1="256"
       x2="443.5332"
       y2="256"
       gradientTransform="translate(458,20)" />
    <linearGradient
       inkscape:collect="always"
       xlink:href="#linearGradient69870"
       id="linearGradient70381"
       gradientUnits="userSpaceOnUse"
       x1="68.472993"
       y1="256"
       x2="443.5332"
       y2="256"
       gradientTransform="translate(458,20)" />
    <linearGradient
       inkscape:collect="always"
       xlink:href="#linearGradient69870"
       id="linearGradient70383"
       gradientUnits="userSpaceOnUse"
       x1="68.472993"
       y1="256"
       x2="443.5332"
       y2="256"
       gradientTransform="translate(458,20)" />
    <linearGradient
       inkscape:collect="always"
       xlink:href="#linearGradient69870"
       id="linearGradient70385"
       gradientUnits="userSpaceOnUse"
       x1="68.472993"
       y1="256"
       x2="443.5332"
       y2="256"
       gradientTransform="translate(458,20)" />
    <linearGradient
       inkscape:collect="always"
       xlink:href="#linearGradient69870"
       id="linearGradient70389"
       gradientUnits="userSpaceOnUse"
       x1="68.472993"
       y1="256"
       x2="443.5332"
       y2="256"
       gradientTransform="translate(950,20)" />
    <linearGradient
       inkscape:collect="always"
       xlink:href="#linearGradient69870"
       id="linearGradient70391"
       gradientUnits="userSpaceOnUse"
       x1="68.472993"
       y1="256"
       x2="443.5332"
       y2="256"
       gradientTransform="translate(950,20)" />
    <linearGradient
       inkscape:collect="always"
       xlink:href="#linearGradient69870"
       id="linearGradient70393"
       gradientUnits="userSpaceOnUse"
       x1="68.472993"
       y1="256"
       x2="443.5332"
       y2="256"
       gradientTransform="translate(950,20)" />
    <linearGradient
       inkscape:collect="always"
       xlink:href="#linearGradient69870"
       id="linearGradient70395"
       gradientUnits="userSpaceOnUse"
       x1="68.472993"
       y1="256"
       x2="443.5332"
       y2="256"
       gradientTransform="translate(1398,544)" />
    <linearGradient
       inkscape:collect="always"
       xlink:href="#linearGradient69870"
       id="linearGradient70397"
       gradientUnits="userSpaceOnUse"
       x1="68.472993"
       y1="256"
       x2="443.5332"
       y2="256"
       gradientTransform="translate(1398,544)" />
    <linearGradient
       inkscape:collect="always"
       xlink:href="#linearGradient69870"
       id="linearGradient70399"
       gradientUnits="userSpaceOnUse"
       x1="68.472993"
       y1="256"
       x2="443.5332"
       y2="256"
       gradientTransform="translate(1398,544)" />
    <linearGradient
       inkscape:collect="always"
       xlink:href="#linearGradient69870"
       id="linearGradient70401"
       gradientUnits="userSpaceOnUse"
       x1="68.472993"
       y1="256"
       x2="443.5332"
       y2="256"
       gradientTransform="translate(1398,544)" />
    <linearGradient
       inkscape:collect="always"
       xlink:href="#linearGradient69870"
       id="linearGradient69872-5"
       x1="118.60538"
       y1="350.21823"
       x2="453.5332"
       y2="350.21823"
       gradientUnits="userSpaceOnUse" />
  </defs>
  <g
     inkscape:label="Foreground"
     inkscape:groupmode="layer"
     id="g1125"
     style="display:inline">
    <rect
       style="fill:url(#linearGradient70199);fill-opacity:1;stroke:url(#radialGradient70172);stroke-width:2.27286;stroke-opacity:1;stop-color:#000000"
       id="rect68350"
       width="1947.9547"
       height="1104.3038"
       x="-1936.6337"
       y="-9.5455322"
       ry="6.7855506"
       transform="scale(-1,1)" />
    <path
       id="ellipse1123"
       style="opacity:0.134146;fill:none;fill-opacity:1;stroke:url(#linearGradient70379);stroke-width:5.36717;stroke-opacity:1;stop-color:#000000;font-variation-settings:normal;vector-effect:none;stroke-linecap:butt;stroke-linejoin:miter;stroke-miterlimit:4;stroke-dasharray:none;stroke-dashoffset:0;-inkscape-stroke:none;stop-opacity:1"
       d="m 450.4122,175.96724 c -22.1838,55.60479 -66.51563,82.99099 -97.79281,95.9989 l -0.88156,69.55862 c 0.12015,0.46242 0.23872,0.84318 0.35879,1.30186 a 91.931705,103.66767 0 0 1 -66.63375,74.46193 91.931705,103.66767 0 0 1 -19.46288,3.05476 91.931705,103.66767 0 0 1 -58.85677,-27.48586 c -32.45637,40.82467 -60.54266,59.87905 -83.80727,66.90366 a 181.25542,173.43144 0 0 0 139.07625,63.0186 181.25542,173.43144 0 0 0 3.58779,-0.27676 181.25542,173.43144 0 0 0 3.5878,0.27676 181.25542,173.43144 0 0 0 28.35376,-2.13558 181.25542,173.43144 0 0 0 144.0308,-117.70331 181.25542,173.43144 0 0 0 8.87039,-53.59125 181.25542,173.43144 0 0 0 -0.3007,-3.70055 c 0.0319,-0.17512 0.30066,-1.51371 0.3007,-1.51371 z" />
    <path
       id="path9020"
       style="opacity:0.134146;fill:none;fill-opacity:1;stroke:url(#linearGradient69874);stroke-width:5.36717;stroke-opacity:1;stop-color:#000000"
       d="m 98.761338,29.219952 c -9.391439,0 -16.951448,7.560067 -16.951448,16.951429 v 39.77318 c 0,0.886423 0.0888,1.747881 0.218685,2.596865 l -0.218685,0.01045 -0.276771,108.935434 c 30.125751,-40.29027 68.175601,-69.23614 95.797301,-86.93034 l -0.32803,-25.917475 -0.41345,0.01749 V 46.172046 c 0,-9.391362 -7.56005,-16.951429 -16.95142,-16.951429 z" />
    <path
       id="ellipse1123-3"
       style="display:inline;opacity:0.134146;fill:none;fill-opacity:1;stroke:url(#linearGradient69876);stroke-width:5.36717;stroke-opacity:1;stop-color:#000000"
       d="m 159.63752,29.219952 c 2.34784,0 4.58235,0.473687 6.61178,1.329197 -2.02943,-0.85551 -4.26394,-1.329197 -6.61178,-1.329197 z m 17.6929,81.336818 c -27.6217,17.69421 -65.67155,46.64008 -95.797301,86.93035 l -0.375857,146.64819 c 0,0 0.268846,1.33859 0.300686,1.51371 a 181.25542,173.43144 0 0 0 -0.300686,3.70055 181.25542,173.43144 0 0 0 42.178688,110.41154 c 23.26461,-7.02461 51.3509,-26.07899 83.80727,-66.90366 a 91.931705,103.66767 0 0 1 -27.23985,-50.03083 c 0.12002,-0.45868 0.23859,-0.83944 0.35879,-1.30186 l -1.30527,-102.86352 v -39.05903 a 181.25542,173.43144 0 0 0 -0.49204,0.31434 z m -53.99447,349.20434 a 181.25542,173.43144 0 0 0 18.07561,18.07902 181.25542,173.43144 0 0 1 -18.07561,-18.07902 z m 95.14468,-57.02187 a 91.931705,103.66767 0 0 0 3.32467,2.38502 91.931705,103.66767 0 0 1 -3.32467,-2.38502 z m 14.27596,8.82936 a 91.931705,103.66767 0 0 0 6.32133,2.6208 91.931705,103.66767 0 0 1 -6.32133,-2.6208 z m 16.07669,6.07874 a 91.931705,103.66767 0 0 0 17.16671,2.69597 91.931705,103.66767 0 0 1 -17.16671,-2.69597 z M 142.1838,478.46886 a 181.25542,173.43144 0 0 0 19.94124,14.85684 181.25542,173.43144 0 0 1 -19.94124,-14.85684 z m 21.71465,15.89559 a 181.25542,173.43144 0 0 0 21.16451,11.47068 181.25542,173.43144 0 0 1 -21.16451,-11.47068 z m 24.2876,12.70761 a 181.25542,173.43144 0 0 0 21.58479,7.99222 181.25542,173.43144 0 0 1 -21.58479,-7.99222 z m 27.00747,9.2394 a 181.25542,173.43144 0 0 0 20.5529,4.4591 181.25542,173.43144 0 0 1 -20.5529,-4.4591 z" />
    <path
       id="ellipse1123-2"
       style="display:inline;opacity:0.134146;fill:none;fill-opacity:1;stroke:url(#linearGradient69878);stroke-width:5.36717;stroke-opacity:1;stop-color:#000000"
       d="m 436.30024,29.524062 c 0.34849,0.06404 0.68457,0.157628 1.02507,0.2426 -0.34155,-0.0845 -0.67557,-0.17911 -1.02507,-0.2426 z m 2.88732,0.816654 c 0.37651,0.141883 0.7542,0.283748 1.11734,0.451032 -0.36509,-0.167424 -0.73871,-0.309359 -1.11734,-0.451032 z m 2.79163,1.359936 c 0.29503,0.178446 0.60882,0.327431 0.89182,0.522795 -0.28345,-0.195679 -0.5961,-0.344331 -0.89182,-0.522795 z m 0.89182,0.522795 c -19.21047,10.371539 -57.78693,33.35977 -88.03743,65.215693 l -1.29844,102.47741 a 181.25542,173.43144 0 0 0 -0.49204,-0.31434 v 39.05903 l -0.42371,33.3049 c 31.27718,-13.00791 75.60901,-40.39411 97.79281,-95.9989 l -0.2221,-87.415562 -0.21869,-0.01045 c 0.12982,-0.848984 0.21869,-1.710442 0.21869,-2.596865 V 46.171137 c 0,-5.803807 -2.89657,-10.895052 -7.31909,-13.947935 z M 161.7936,438.9827 c -6.99335,5.37239 -13.7003,9.68847 -20.1121,13.10056 6.4118,-3.41209 13.11875,-7.72817 20.1121,-13.10056 z" />
    <path
       id="ellipse1123-4"
       style="opacity:0.134146;fill:#333333;fill-opacity:1;stroke:url(#linearGradient70371);stroke-width:5.36717;stroke-opacity:1;stop-color:#000000"
       d="m 450.4122,699.96724 c -22.1838,55.60479 -66.51563,82.99099 -97.79281,95.9989 l -0.88156,69.55862 c 0.12015,0.46242 0.23872,0.84318 0.35879,1.30186 a 91.931705,103.66767 0 0 1 -66.63375,74.46193 91.931705,103.66767 0 0 1 -19.46288,3.05476 91.931705,103.66767 0 0 1 -58.85677,-27.48586 c -32.45637,40.82467 -60.54266,59.87905 -83.80727,66.90366 a 181.25542,173.43144 0 0 0 139.07625,63.01859 181.25542,173.43144 0 0 0 3.58779,-0.2767 181.25542,173.43144 0 0 0 3.5878,0.2767 181.25542,173.43144 0 0 0 28.35376,-2.1356 181.25542,173.43144 0 0 0 144.0308,-117.70328 181.25542,173.43144 0 0 0 8.87039,-53.59125 181.25542,173.43144 0 0 0 -0.3007,-3.70055 c 0.0319,-0.17512 0.30066,-1.51371 0.3007,-1.51371 z" />
    <path
       id="path9020-2"
       style="opacity:0.134146;fill:none;fill-opacity:1;stroke:url(#linearGradient70373);stroke-width:5.36717;stroke-opacity:1;stop-color:#000000"
       d="m 98.761338,553.21995 c -9.391439,0 -16.951448,7.56007 -16.951448,16.95143 v 39.77318 c 0,0.88642 0.0888,1.74788 0.218685,2.59687 l -0.218685,0.0104 -0.276771,108.93544 C 111.65887,681.197 149.70872,652.25113 177.33042,634.55693 l -0.32803,-25.91748 -0.41345,0.0175 v -38.48493 c 0,-9.39137 -7.56005,-16.95143 -16.95142,-16.95143 z" />
    <path
       id="ellipse1123-3-3"
       style="display:inline;opacity:0.134146;fill:none;fill-opacity:1;stroke:url(#linearGradient70375);stroke-width:5.36717;stroke-opacity:1;stop-color:#000000"
       d="m 159.63752,553.21995 c 2.34784,0 4.58235,0.47369 6.61178,1.3292 -2.02943,-0.85551 -4.26394,-1.3292 -6.61178,-1.3292 z m 17.6929,81.33683 c -27.6217,17.6942 -65.67155,46.64007 -95.797301,86.93034 l -0.375857,146.64819 c 0,0 0.268846,1.33859 0.300686,1.51371 a 181.25542,173.43144 0 0 0 -0.300686,3.70055 181.25542,173.43144 0 0 0 42.178688,110.41154 c 23.26461,-7.02461 51.3509,-26.07899 83.80727,-66.90366 a 91.931705,103.66767 0 0 1 -27.23985,-50.03083 c 0.12002,-0.45868 0.23859,-0.83944 0.35879,-1.30186 l -1.30527,-102.86352 v -39.05903 a 181.25542,173.43144 0 0 0 -0.49204,0.31434 z m -53.99447,349.20433 a 181.25542,173.43144 0 0 0 18.07561,18.07899 181.25542,173.43144 0 0 1 -18.07561,-18.07899 z m 95.14468,-57.02187 a 91.931705,103.66767 0 0 0 3.32467,2.38502 91.931705,103.66767 0 0 1 -3.32467,-2.38502 z m 14.27596,8.82936 a 91.931705,103.66767 0 0 0 6.32133,2.6208 91.931705,103.66767 0 0 1 -6.32133,-2.6208 z m 16.07669,6.07874 a 91.931705,103.66767 0 0 0 17.16671,2.69597 91.931705,103.66767 0 0 1 -17.16671,-2.69597 z M 142.1838,1002.4689 a 181.25542,173.43144 0 0 0 19.94124,14.8568 181.25542,173.43144 0 0 1 -19.94124,-14.8568 z m 21.71465,15.8956 a 181.25542,173.43144 0 0 0 21.16451,11.4706 181.25542,173.43144 0 0 1 -21.16451,-11.4706 z m 24.2876,12.7076 a 181.25542,173.43144 0 0 0 21.58479,7.9922 181.25542,173.43144 0 0 1 -21.58479,-7.9922 z m 27.00747,9.2394 a 181.25542,173.43144 0 0 0 20.5529,4.4591 181.25542,173.43144 0 0 1 -20.5529,-4.4591 z" />
    <path
       id="ellipse1123-2-5"
       style="display:inline;opacity:0.134146;fill:none;fill-opacity:1;stroke:url(#linearGradient70377);stroke-width:5.36717;stroke-opacity:1;stop-color:#000000"
       d="m 436.30024,553.52406 c 0.34849,0.064 0.68457,0.15763 1.02507,0.2426 -0.34155,-0.0845 -0.67557,-0.17911 -1.02507,-0.2426 z m 2.88732,0.81666 c 0.37651,0.14188 0.7542,0.28374 1.11734,0.45103 -0.36509,-0.16743 -0.73871,-0.30936 -1.11734,-0.45103 z m 2.79163,1.35993 c 0.29503,0.17845 0.60882,0.32743 0.89182,0.5228 -0.28345,-0.19568 -0.5961,-0.34433 -0.89182,-0.5228 z m 0.89182,0.5228 c -19.21047,10.37154 -57.78693,33.35977 -88.03743,65.21569 l -1.29844,102.47741 a 181.25542,173.43144 0 0 0 -0.49204,-0.31434 v 39.05903 l -0.42371,33.3049 c 31.27718,-13.00791 75.60901,-40.39411 97.79281,-95.9989 l -0.2221,-87.41556 -0.21869,-0.0104 c 0.12982,-0.84899 0.21869,-1.71044 0.21869,-2.59687 v -39.77322 c 0,-5.80381 -2.89657,-10.89506 -7.31909,-13.94794 z M 161.7936,962.9827 c -6.99335,5.37239 -13.7003,9.68847 -20.1121,13.10056 6.4118,-3.41209 13.11875,-7.72817 20.1121,-13.10056 z" />
    <path
       id="ellipse1123-9"
       style="opacity:0.134146;fill:none;fill-opacity:1;stroke:url(#linearGradient70379);stroke-width:5.36717;stroke-opacity:1;stop-color:#000000"
       d="m 898.4122,175.96724 c -22.1838,55.60479 -66.51563,82.99099 -97.79281,95.9989 l -0.88156,69.55862 c 0.12015,0.46242 0.23872,0.84318 0.35879,1.30186 a 91.931705,103.66767 0 0 1 -66.63375,74.46193 91.931705,103.66767 0 0 1 -19.46288,3.05476 91.931705,103.66767 0 0 1 -58.85677,-27.48586 c -32.45637,40.82467 -60.54266,59.87905 -83.80727,66.90366 a 181.25542,173.43144 0 0 0 139.07625,63.0186 181.25542,173.43144 0 0 0 3.58779,-0.27676 181.25542,173.43144 0 0 0 3.5878,0.27676 181.25542,173.43144 0 0 0 28.35376,-2.13558 181.25542,173.43144 0 0 0 144.0308,-117.70331 181.25542,173.43144 0 0 0 8.87039,-53.59125 181.25542,173.43144 0 0 0 -0.3007,-3.70055 c 0.0319,-0.17512 0.30066,-1.51371 0.3007,-1.51371 z" />
    <path
       id="path9020-5"
       style="opacity:0.134146;fill:none;fill-opacity:1;stroke:url(#linearGradient70381);stroke-width:5.36717;stroke-opacity:1;stop-color:#000000"
       d="m 546.76134,29.219952 c -9.39144,0 -16.95145,7.560067 -16.95145,16.951429 v 39.77318 c 0,0.886423 0.0888,1.747881 0.21869,2.596865 l -0.21869,0.01045 -0.27677,108.935434 c 30.12575,-40.29027 68.1756,-69.23614 95.7973,-86.93034 l -0.32803,-25.917475 -0.41345,0.01749 V 46.172046 c 0,-9.391362 -7.56005,-16.951429 -16.95142,-16.951429 z" />
    <path
       id="ellipse1123-3-4"
       style="display:inline;opacity:0.134146;fill:none;fill-opacity:1;stroke:url(#linearGradient70383);stroke-width:5.36717;stroke-opacity:1;stop-color:#000000"
       d="m 607.63752,29.219952 c 2.34784,0 4.58235,0.473687 6.61178,1.329197 -2.02943,-0.85551 -4.26394,-1.329197 -6.61178,-1.329197 z m 17.6929,81.336818 c -27.6217,17.69421 -65.67155,46.64008 -95.7973,86.93035 l -0.37586,146.64819 c 0,0 0.26885,1.33859 0.30069,1.51371 a 181.25542,173.43144 0 0 0 -0.30069,3.70055 181.25542,173.43144 0 0 0 42.17869,110.41154 c 23.26461,-7.02461 51.3509,-26.07899 83.80727,-66.90366 a 91.931705,103.66767 0 0 1 -27.23985,-50.03083 c 0.12002,-0.45868 0.23859,-0.83944 0.35879,-1.30186 l -1.30527,-102.86352 v -39.05903 a 181.25542,173.43144 0 0 0 -0.49204,0.31434 z m -53.99447,349.20434 a 181.25542,173.43144 0 0 0 18.07561,18.07902 181.25542,173.43144 0 0 1 -18.07561,-18.07902 z m 95.14468,-57.02187 a 91.931705,103.66767 0 0 0 3.32467,2.38502 91.931705,103.66767 0 0 1 -3.32467,-2.38502 z m 14.27596,8.82936 a 91.931705,103.66767 0 0 0 6.32133,2.6208 91.931705,103.66767 0 0 1 -6.32133,-2.6208 z m 16.07669,6.07874 a 91.931705,103.66767 0 0 0 17.16671,2.69597 91.931705,103.66767 0 0 1 -17.16671,-2.69597 z M 590.1838,478.46886 a 181.25542,173.43144 0 0 0 19.94124,14.85684 181.25542,173.43144 0 0 1 -19.94124,-14.85684 z m 21.71465,15.89559 a 181.25542,173.43144 0 0 0 21.16451,11.47068 181.25542,173.43144 0 0 1 -21.16451,-11.47068 z m 24.2876,12.70761 a 181.25542,173.43144 0 0 0 21.58479,7.99222 181.25542,173.43144 0 0 1 -21.58479,-7.99222 z m 27.00747,9.2394 a 181.25542,173.43144 0 0 0 20.5529,4.4591 181.25542,173.43144 0 0 1 -20.5529,-4.4591 z" />
    <path
       id="ellipse1123-2-8"
       style="display:inline;opacity:0.134146;fill:none;fill-opacity:1;stroke:url(#linearGradient70385);stroke-width:5.36717;stroke-opacity:1;stop-color:#000000"
       d="m 884.30024,29.524062 c 0.34849,0.06404 0.68457,0.157628 1.02507,0.2426 -0.34155,-0.0845 -0.67557,-0.17911 -1.02507,-0.2426 z m 2.88732,0.816654 c 0.37651,0.141883 0.7542,0.283748 1.11734,0.451032 -0.36509,-0.167424 -0.73871,-0.309359 -1.11734,-0.451032 z m 2.79163,1.359936 c 0.29503,0.178446 0.60882,0.327431 0.89182,0.522795 -0.28345,-0.195679 -0.5961,-0.344331 -0.89182,-0.522795 z m 0.89182,0.522795 c -19.21047,10.371539 -57.78693,33.35977 -88.03743,65.215693 l -1.29844,102.47741 a 181.25542,173.43144 0 0 0 -0.49204,-0.31434 v 39.05903 l -0.42371,33.3049 c 31.27718,-13.00791 75.60901,-40.39411 97.79281,-95.9989 l -0.2221,-87.415562 -0.21869,-0.01045 c 0.12982,-0.848984 0.21869,-1.710442 0.21869,-2.596865 V 46.171137 c 0,-5.803807 -2.89657,-10.895052 -7.31909,-13.947935 z M 609.7936,438.9827 c -6.99335,5.37239 -13.7003,9.68847 -20.1121,13.10056 6.4118,-3.41209 13.11875,-7.72817 20.1121,-13.10056 z" />
    <path
       id="ellipse1123-4-9"
       style="opacity:0.134146;fill:none;fill-opacity:1;stroke:url(#linearGradient69884);stroke-width:5.36717;stroke-opacity:1;stop-color:#000000"
       d="m 898.4122,699.96724 c -22.1838,55.60479 -66.51563,82.99099 -97.79281,95.9989 l -0.88156,69.55862 c 0.12015,0.46242 0.23872,0.84318 0.35879,1.30186 a 91.931705,103.66767 0 0 1 -66.63375,74.46193 91.931705,103.66767 0 0 1 -19.46288,3.05476 91.931705,103.66767 0 0 1 -58.85677,-27.48586 c -32.45637,40.82467 -60.54266,59.87905 -83.80727,66.90366 a 181.25542,173.43144 0 0 0 139.07625,63.01859 181.25542,173.43144 0 0 0 3.58779,-0.2767 181.25542,173.43144 0 0 0 3.5878,0.2767 181.25542,173.43144 0 0 0 28.35376,-2.1356 181.25542,173.43144 0 0 0 144.0308,-117.70328 181.25542,173.43144 0 0 0 8.87039,-53.59125 181.25542,173.43144 0 0 0 -0.3007,-3.70055 c 0.0319,-0.17512 0.30066,-1.51371 0.3007,-1.51371 z" />
    <path
       id="path9020-2-3"
       style="opacity:0.134146;fill:none;fill-opacity:1;stroke:url(#linearGradient69886);stroke-width:5.36717;stroke-opacity:1;stop-color:#000000"
       d="m 546.76134,553.21995 c -9.39144,0 -16.95145,7.56007 -16.95145,16.95143 v 39.77318 c 0,0.88642 0.0888,1.74788 0.21869,2.59687 l -0.21869,0.0104 -0.27677,108.93544 c 30.12575,-40.29027 68.1756,-69.23614 95.7973,-86.93034 l -0.32803,-25.91748 -0.41345,0.0175 v -38.48493 c 0,-9.39137 -7.56005,-16.95143 -16.95142,-16.95143 z" />
    <path
       id="ellipse1123-3-3-7"
       style="display:inline;opacity:0.134146;fill:#28220b;fill-opacity:1;stroke:url(#linearGradient69888);stroke-width:5.36717;stroke-opacity:1;stop-color:#000000"
       d="m 607.63752,553.21995 c 2.34784,0 4.58235,0.47369 6.61178,1.3292 -2.02943,-0.85551 -4.26394,-1.3292 -6.61178,-1.3292 z m 17.6929,81.33683 c -27.6217,17.6942 -65.67155,46.64007 -95.7973,86.93034 l -0.37586,146.64819 c 0,0 0.26885,1.33859 0.30069,1.51371 a 181.25542,173.43144 0 0 0 -0.30069,3.70055 181.25542,173.43144 0 0 0 42.17869,110.41154 c 23.26461,-7.02461 51.3509,-26.07899 83.80727,-66.90366 a 91.931705,103.66767 0 0 1 -27.23985,-50.03083 c 0.12002,-0.45868 0.23859,-0.83944 0.35879,-1.30186 l -1.30527,-102.86352 v -39.05903 a 181.25542,173.43144 0 0 0 -0.49204,0.31434 z m -53.99447,349.20433 a 181.25542,173.43144 0 0 0 18.07561,18.07899 181.25542,173.43144 0 0 1 -18.07561,-18.07899 z m 95.14468,-57.02187 a 91.931705,103.66767 0 0 0 3.32467,2.38502 91.931705,103.66767 0 0 1 -3.32467,-2.38502 z m 14.27596,8.82936 a 91.931705,103.66767 0 0 0 6.32133,2.6208 91.931705,103.66767 0 0 1 -6.32133,-2.6208 z m 16.07669,6.07874 a 91.931705,103.66767 0 0 0 17.16671,2.69597 91.931705,103.66767 0 0 1 -17.16671,-2.69597 z M 590.1838,1002.4689 a 181.25542,173.43144 0 0 0 19.94124,14.8568 181.25542,173.43144 0 0 1 -19.94124,-14.8568 z m 21.71465,15.8956 a 181.25542,173.43144 0 0 0 21.16451,11.4706 181.25542,173.43144 0 0 1 -21.16451,-11.4706 z m 24.2876,12.7076 a 181.25542,173.43144 0 0 0 21.58479,7.9922 181.25542,173.43144 0 0 1 -21.58479,-7.9922 z m 27.00747,9.2394 a 181.25542,173.43144 0 0 0 20.5529,4.4591 181.25542,173.43144 0 0 1 -20.5529,-4.4591 z" />
    <path
       id="ellipse1123-2-5-3"
       style="display:inline;opacity:0.134146;fill:#a93c90;fill-opacity:1;stroke:url(#linearGradient69890);stroke-width:5.36717;stroke-opacity:1;stop-color:#000000"
       d="m 884.30024,553.52406 c 0.34849,0.064 0.68457,0.15763 1.02507,0.2426 -0.34155,-0.0845 -0.67557,-0.17911 -1.02507,-0.2426 z m 2.88732,0.81666 c 0.37651,0.14188 0.7542,0.28374 1.11734,0.45103 -0.36509,-0.16743 -0.73871,-0.30936 -1.11734,-0.45103 z m 2.79163,1.35993 c 0.29503,0.17845 0.60882,0.32743 0.89182,0.5228 -0.28345,-0.19568 -0.5961,-0.34433 -0.89182,-0.5228 z m 0.89182,0.5228 c -19.21047,10.37154 -57.78693,33.35977 -88.03743,65.21569 l -1.29844,102.47741 a 181.25542,173.43144 0 0 0 -0.49204,-0.31434 v 39.05903 l -0.42371,33.3049 c 31.27718,-13.00791 75.60901,-40.39411 97.79281,-95.9989 l -0.2221,-87.41556 -0.21869,-0.0104 c 0.12982,-0.84899 0.21869,-1.71044 0.21869,-2.59687 v -39.77322 c 0,-5.80381 -2.89657,-10.89506 -7.31909,-13.94794 z M 609.7936,962.9827 c -6.99335,5.37239 -13.7003,9.68847 -20.1121,13.10056 6.4118,-3.41209 13.11875,-7.72817 20.1121,-13.10056 z" />
    <path
       id="ellipse1123-33"
       style="opacity:0.134146;fill:#a95f3c;fill-opacity:1;stroke:url(#linearGradient69872);stroke-width:5.36717;stroke-opacity:1;stop-color:#000000;font-variation-settings:normal;vector-effect:none;stroke-linecap:butt;stroke-linejoin:miter;stroke-miterlimit:4;stroke-dasharray:none;stroke-dashoffset:0;-inkscape-stroke:none;stop-opacity:1"
       d="m 1390.4122,175.96724 c -22.1838,55.60479 -66.5156,82.99099 -97.7928,95.9989 l -0.8816,69.55862 c 0.1202,0.46242 0.2387,0.84318 0.3588,1.30186 a 91.931705,103.66767 0 0 1 -66.6337,74.46193 91.931705,103.66767 0 0 1 -19.4629,3.05476 91.931705,103.66767 0 0 1 -58.8568,-27.48586 c -32.4563,40.82467 -60.5426,59.87905 -83.8072,66.90366 a 181.25542,173.43144 0 0 0 139.0762,63.0186 181.25542,173.43144 0 0 0 3.5878,-0.27676 181.25542,173.43144 0 0 0 3.5878,0.27676 181.25542,173.43144 0 0 0 28.3538,-2.13558 181.25542,173.43144 0 0 0 144.0308,-117.70331 181.25542,173.43144 0 0 0 8.8703,-53.59125 181.25542,173.43144 0 0 0 -0.3007,-3.70055 c 0.032,-0.17512 0.3007,-1.51371 0.3007,-1.51371 z" />
    <path
       id="path9020-1"
       style="opacity:0.134146;fill:none;fill-opacity:1;stroke:url(#linearGradient70389);stroke-width:5.36717;stroke-opacity:1;stop-color:#000000"
       d="m 1038.7613,29.219952 c -9.3914,0 -16.9514,7.560067 -16.9514,16.951429 v 39.77318 c 0,0.886423 0.089,1.747881 0.2187,2.596865 l -0.2187,0.01045 -0.2768,108.935434 c 30.1258,-40.29027 68.1756,-69.23614 95.7973,-86.93034 l -0.328,-25.917475 -0.4135,0.01749 V 46.172046 c 0,-9.391362 -7.56,-16.951429 -16.9514,-16.951429 z" />
    <path
       id="ellipse1123-3-2"
       style="display:inline;opacity:0.134146;fill:none;fill-opacity:1;stroke:url(#linearGradient70391);stroke-width:5.36717;stroke-opacity:1;stop-color:#000000"
       d="m 1099.6375,29.219952 c 2.3479,0 4.5824,0.473687 6.6118,1.329197 -2.0294,-0.85551 -4.2639,-1.329197 -6.6118,-1.329197 z m 17.6929,81.336818 c -27.6217,17.69421 -65.6715,46.64008 -95.7973,86.93035 l -0.3758,146.64819 c 0,0 0.2688,1.33859 0.3006,1.51371 a 181.25542,173.43144 0 0 0 -0.3006,3.70055 181.25542,173.43144 0 0 0 42.1787,110.41154 c 23.2646,-7.02461 51.3509,-26.07899 83.8072,-66.90366 a 91.931705,103.66767 0 0 1 -27.2398,-50.03083 c 0.12,-0.45868 0.2386,-0.83944 0.3588,-1.30186 l -1.3053,-102.86352 v -39.05903 a 181.25542,173.43144 0 0 0 -0.492,0.31434 z m -53.9944,349.20434 a 181.25542,173.43144 0 0 0 18.0756,18.07902 181.25542,173.43144 0 0 1 -18.0756,-18.07902 z m 95.1446,-57.02187 a 91.931705,103.66767 0 0 0 3.3247,2.38502 91.931705,103.66767 0 0 1 -3.3247,-2.38502 z m 14.276,8.82936 a 91.931705,103.66767 0 0 0 6.3213,2.6208 91.931705,103.66767 0 0 1 -6.3213,-2.6208 z m 16.0767,6.07874 a 91.931705,103.66767 0 0 0 17.1667,2.69597 91.931705,103.66767 0 0 1 -17.1667,-2.69597 z m -106.6495,60.82152 a 181.25542,173.43144 0 0 0 19.9412,14.85684 181.25542,173.43144 0 0 1 -19.9412,-14.85684 z m 21.7147,15.89559 a 181.25542,173.43144 0 0 0 21.1645,11.47068 181.25542,173.43144 0 0 1 -21.1645,-11.47068 z m 24.2876,12.70761 a 181.25542,173.43144 0 0 0 21.5847,7.99222 181.25542,173.43144 0 0 1 -21.5847,-7.99222 z m 27.0074,9.2394 a 181.25542,173.43144 0 0 0 20.5529,4.4591 181.25542,173.43144 0 0 1 -20.5529,-4.4591 z" />
    <path
       id="ellipse1123-2-4"
       style="display:inline;opacity:0.134146;fill:none;fill-opacity:1;stroke:url(#linearGradient70393);stroke-width:5.36717;stroke-opacity:1;stop-color:#000000"
       d="m 1376.3002,29.524062 c 0.3485,0.06404 0.6846,0.157628 1.0251,0.2426 -0.3415,-0.0845 -0.6756,-0.17911 -1.0251,-0.2426 z m 2.8874,0.816654 c 0.3765,0.141883 0.7542,0.283748 1.1173,0.451032 -0.3651,-0.167424 -0.7387,-0.309359 -1.1173,-0.451032 z m 2.7916,1.359936 c 0.295,0.178446 0.6088,0.327431 0.8918,0.522795 -0.2834,-0.195679 -0.5961,-0.344331 -0.8918,-0.522795 z m 0.8918,0.522795 c -19.2105,10.371539 -57.7869,33.35977 -88.0374,65.215693 l -1.2985,102.47741 a 181.25542,173.43144 0 0 0 -0.492,-0.31434 v 39.05903 l -0.4237,33.3049 c 31.2772,-13.00791 75.609,-40.39411 97.7928,-95.9989 l -0.2221,-87.415562 -0.2187,-0.01045 c 0.1298,-0.848984 0.2187,-1.710442 0.2187,-2.596865 V 46.171137 c 0,-5.803807 -2.8966,-10.895052 -7.3191,-13.947935 z M 1101.7936,438.9827 c -6.9933,5.37239 -13.7003,9.68847 -20.1121,13.10056 6.4118,-3.41209 13.1188,-7.72817 20.1121,-13.10056 z" />
    <path
       id="ellipse1123-4-7"
       style="opacity:0.134146;fill:none;fill-opacity:1;stroke:url(#linearGradient69894);stroke-width:5.36717;stroke-opacity:1;stop-color:#000000"
       d="m 1390.4122,699.96724 c -22.1838,55.60479 -66.5156,82.99099 -97.7928,95.9989 l -0.8816,69.55862 c 0.1202,0.46242 0.2387,0.84318 0.3588,1.30186 a 91.931705,103.66767 0 0 1 -66.6337,74.46193 91.931705,103.66767 0 0 1 -19.4629,3.05476 91.931705,103.66767 0 0 1 -58.8568,-27.48586 c -32.4563,40.82467 -60.5426,59.87905 -83.8072,66.90366 a 181.25542,173.43144 0 0 0 139.0762,63.01859 181.25542,173.43144 0 0 0 3.5878,-0.2767 181.25542,173.43144 0 0 0 3.5878,0.2767 181.25542,173.43144 0 0 0 28.3538,-2.1356 181.25542,173.43144 0 0 0 144.0308,-117.70328 181.25542,173.43144 0 0 0 8.8703,-53.59125 181.25542,173.43144 0 0 0 -0.3007,-3.70055 c 0.032,-0.17512 0.3007,-1.51371 0.3007,-1.51371 z" />
    <path
       id="path9020-2-2"
       style="opacity:0.134146;fill:#505454;fill-opacity:1;stroke:url(#linearGradient69896);stroke-width:5.36717;stroke-opacity:1;stop-color:#000000"
       d="m 1038.7613,553.21995 c -9.3914,0 -16.9514,7.56007 -16.9514,16.95143 v 39.77318 c 0,0.88642 0.089,1.74788 0.2187,2.59687 l -0.2187,0.0104 -0.2768,108.93544 c 30.1258,-40.29027 68.1756,-69.23614 95.7973,-86.93034 l -0.328,-25.91748 -0.4135,0.0175 v -38.48493 c 0,-9.39137 -7.56,-16.95143 -16.9514,-16.95143 z" />
    <path
       id="ellipse1123-3-3-5"
       style="display:inline;opacity:0.134146;fill:none;fill-opacity:1;stroke:url(#linearGradient69898);stroke-width:5.36717;stroke-opacity:1;stop-color:#000000"
       d="m 1099.6375,553.21995 c 2.3479,0 4.5824,0.47369 6.6118,1.3292 -2.0294,-0.85551 -4.2639,-1.3292 -6.6118,-1.3292 z m 17.6929,81.33683 c -27.6217,17.6942 -65.6715,46.64007 -95.7973,86.93034 l -0.3758,146.64819 c 0,0 0.2688,1.33859 0.3006,1.51371 a 181.25542,173.43144 0 0 0 -0.3006,3.70055 181.25542,173.43144 0 0 0 42.1787,110.41154 c 23.2646,-7.02461 51.3509,-26.07899 83.8072,-66.90366 a 91.931705,103.66767 0 0 1 -27.2398,-50.03083 c 0.12,-0.45868 0.2386,-0.83944 0.3588,-1.30186 l -1.3053,-102.86352 v -39.05903 a 181.25542,173.43144 0 0 0 -0.492,0.31434 z m -53.9944,349.20433 a 181.25542,173.43144 0 0 0 18.0756,18.07899 181.25542,173.43144 0 0 1 -18.0756,-18.07899 z m 95.1446,-57.02187 a 91.931705,103.66767 0 0 0 3.3247,2.38502 91.931705,103.66767 0 0 1 -3.3247,-2.38502 z m 14.276,8.82936 a 91.931705,103.66767 0 0 0 6.3213,2.6208 91.931705,103.66767 0 0 1 -6.3213,-2.6208 z m 16.0767,6.07874 a 91.931705,103.66767 0 0 0 17.1667,2.69597 91.931705,103.66767 0 0 1 -17.1667,-2.69597 z m -106.6495,60.82156 a 181.25542,173.43144 0 0 0 19.9412,14.8568 181.25542,173.43144 0 0 1 -19.9412,-14.8568 z m 21.7147,15.8956 a 181.25542,173.43144 0 0 0 21.1645,11.4706 181.25542,173.43144 0 0 1 -21.1645,-11.4706 z m 24.2876,12.7076 a 181.25542,173.43144 0 0 0 21.5847,7.9922 181.25542,173.43144 0 0 1 -21.5847,-7.9922 z m 27.0074,9.2394 a 181.25542,173.43144 0 0 0 20.5529,4.4591 181.25542,173.43144 0 0 1 -20.5529,-4.4591 z" />
    <path
       id="ellipse1123-2-5-4"
       style="display:inline;opacity:0.134146;fill:none;fill-opacity:1;stroke:url(#linearGradient69900);stroke-width:5.36717;stroke-opacity:1;stop-color:#000000"
       d="m 1376.3002,553.52406 c 0.3485,0.064 0.6846,0.15763 1.0251,0.2426 -0.3415,-0.0845 -0.6756,-0.17911 -1.0251,-0.2426 z m 2.8874,0.81666 c 0.3765,0.14188 0.7542,0.28374 1.1173,0.45103 -0.3651,-0.16743 -0.7387,-0.30936 -1.1173,-0.45103 z m 2.7916,1.35993 c 0.295,0.17845 0.6088,0.32743 0.8918,0.5228 -0.2834,-0.19568 -0.5961,-0.34433 -0.8918,-0.5228 z m 0.8918,0.5228 c -19.2105,10.37154 -57.7869,33.35977 -88.0374,65.21569 l -1.2985,102.47741 a 181.25542,173.43144 0 0 0 -0.492,-0.31434 v 39.05903 l -0.4237,33.3049 c 31.2772,-13.00791 75.609,-40.39411 97.7928,-95.9989 l -0.2221,-87.41556 -0.2187,-0.0104 c 0.1298,-0.84899 0.2187,-1.71044 0.2187,-2.59687 v -39.77322 c 0,-5.80381 -2.8966,-10.89506 -7.3191,-13.94794 z M 1101.7936,962.9827 c -6.9933,5.37239 -13.7003,9.68847 -20.1121,13.10056 6.4118,-3.41209 13.1188,-7.72817 20.1121,-13.10056 z" />
    <path
       id="ellipse1123-9-3"
       style="opacity:0.134146;fill:none;fill-opacity:1;stroke:url(#linearGradient69902);stroke-width:5.36717;stroke-opacity:1;stop-color:#000000"
       d="m 1838.4122,175.96724 c -22.1838,55.60479 -66.5156,82.99099 -97.7928,95.9989 l -0.8816,69.55862 c 0.1202,0.46242 0.2387,0.84318 0.3588,1.30186 a 91.931705,103.66767 0 0 1 -66.6337,74.46193 91.931705,103.66767 0 0 1 -19.4629,3.05476 91.931705,103.66767 0 0 1 -58.8568,-27.48586 c -32.4563,40.82467 -60.5426,59.87905 -83.8072,66.90366 a 181.25542,173.43144 0 0 0 139.0762,63.0186 181.25542,173.43144 0 0 0 3.5878,-0.27676 181.25542,173.43144 0 0 0 3.5878,0.27676 181.25542,173.43144 0 0 0 28.3538,-2.13558 181.25542,173.43144 0 0 0 144.0308,-117.70331 181.25542,173.43144 0 0 0 8.8703,-53.59125 181.25542,173.43144 0 0 0 -0.3007,-3.70055 c 0.032,-0.17512 0.3007,-1.51371 0.3007,-1.51371 z" />
    <path
       id="path9020-5-4"
       style="opacity:0.134146;fill:none;fill-opacity:1;stroke:url(#linearGradient69904);stroke-width:5.36717;stroke-opacity:1;stop-color:#000000"
       d="m 1486.7613,29.219952 c -9.3914,0 -16.9514,7.560067 -16.9514,16.951429 v 39.77318 c 0,0.886423 0.089,1.747881 0.2187,2.596865 l -0.2187,0.01045 -0.2768,108.935434 c 30.1258,-40.29027 68.1756,-69.23614 95.7973,-86.93034 l -0.328,-25.917475 -0.4135,0.01749 V 46.172046 c 0,-9.391362 -7.56,-16.951429 -16.9514,-16.951429 z" />
    <path
       id="ellipse1123-3-4-7"
       style="display:inline;opacity:0.134146;fill:#52a93c;fill-opacity:1;stroke:url(#linearGradient69906);stroke-width:5.36717;stroke-opacity:1;stop-color:#000000"
       d="m 1547.6375,29.219952 c 2.3479,0 4.5824,0.473687 6.6118,1.329197 -2.0294,-0.85551 -4.2639,-1.329197 -6.6118,-1.329197 z m 17.6929,81.336818 c -27.6217,17.69421 -65.6715,46.64008 -95.7973,86.93035 l -0.3758,146.64819 c 0,0 0.2688,1.33859 0.3006,1.51371 a 181.25542,173.43144 0 0 0 -0.3006,3.70055 181.25542,173.43144 0 0 0 42.1787,110.41154 c 23.2646,-7.02461 51.3509,-26.07899 83.8072,-66.90366 a 91.931705,103.66767 0 0 1 -27.2398,-50.03083 c 0.12,-0.45868 0.2386,-0.83944 0.3588,-1.30186 l -1.3053,-102.86352 v -39.05903 a 181.25542,173.43144 0 0 0 -0.492,0.31434 z m -53.9944,349.20434 a 181.25542,173.43144 0 0 0 18.0756,18.07902 181.25542,173.43144 0 0 1 -18.0756,-18.07902 z m 95.1446,-57.02187 a 91.931705,103.66767 0 0 0 3.3247,2.38502 91.931705,103.66767 0 0 1 -3.3247,-2.38502 z m 14.276,8.82936 a 91.931705,103.66767 0 0 0 6.3213,2.6208 91.931705,103.66767 0 0 1 -6.3213,-2.6208 z m 16.0767,6.07874 a 91.931705,103.66767 0 0 0 17.1667,2.69597 91.931705,103.66767 0 0 1 -17.1667,-2.69597 z m -106.6495,60.82152 a 181.25542,173.43144 0 0 0 19.9412,14.85684 181.25542,173.43144 0 0 1 -19.9412,-14.85684 z m 21.7147,15.89559 a 181.25542,173.43144 0 0 0 21.1645,11.47068 181.25542,173.43144 0 0 1 -21.1645,-11.47068 z m 24.2876,12.70761 a 181.25542,173.43144 0 0 0 21.5847,7.99222 181.25542,173.43144 0 0 1 -21.5847,-7.99222 z m 27.0074,9.2394 a 181.25542,173.43144 0 0 0 20.5529,4.4591 181.25542,173.43144 0 0 1 -20.5529,-4.4591 z" />
    <path
       id="ellipse1123-2-8-9"
       style="display:inline;opacity:0.134146;fill:#000080;fill-opacity:1;stroke:url(#linearGradient69908);stroke-width:5.36717;stroke-opacity:1;stop-color:#000000"
       d="m 1824.3002,29.524062 c 0.3485,0.06404 0.6846,0.157628 1.0251,0.2426 -0.3415,-0.0845 -0.6756,-0.17911 -1.0251,-0.2426 z m 2.8874,0.816654 c 0.3765,0.141883 0.7542,0.283748 1.1173,0.451032 -0.3651,-0.167424 -0.7387,-0.309359 -1.1173,-0.451032 z m 2.7916,1.359936 c 0.295,0.178446 0.6088,0.327431 0.8918,0.522795 -0.2834,-0.195679 -0.5961,-0.344331 -0.8918,-0.522795 z m 0.8918,0.522795 c -19.2105,10.371539 -57.7869,33.35977 -88.0374,65.215693 l -1.2985,102.47741 a 181.25542,173.43144 0 0 0 -0.492,-0.31434 v 39.05903 l -0.4237,33.3049 c 31.2772,-13.00791 75.609,-40.39411 97.7928,-95.9989 l -0.2221,-87.415562 -0.2187,-0.01045 c 0.1298,-0.848984 0.2187,-1.710442 0.2187,-2.596865 V 46.171137 c 0,-5.803807 -2.8966,-10.895052 -7.3191,-13.947935 z M 1549.7936,438.9827 c -6.9933,5.37239 -13.7003,9.68847 -20.1121,13.10056 6.4118,-3.41209 13.1188,-7.72817 20.1121,-13.10056 z" />
    <path
       id="ellipse1123-4-9-8"
       style="opacity:0.134146;fill:none;fill-opacity:1;stroke:url(#linearGradient70395);stroke-width:5.36717;stroke-opacity:1;stop-color:#000000"
       d="m 1838.4122,699.96724 c -22.1838,55.60479 -66.5156,82.99099 -97.7928,95.9989 l -0.8816,69.55862 c 0.1202,0.46242 0.2387,0.84318 0.3588,1.30186 a 91.931705,103.66767 0 0 1 -66.6337,74.46193 91.931705,103.66767 0 0 1 -19.4629,3.05476 91.931705,103.66767 0 0 1 -58.8568,-27.48586 c -32.4563,40.82467 -60.5426,59.87905 -83.8072,66.90366 a 181.25542,173.43144 0 0 0 139.0762,63.01859 181.25542,173.43144 0 0 0 3.5878,-0.2767 181.25542,173.43144 0 0 0 3.5878,0.2767 181.25542,173.43144 0 0 0 28.3538,-2.1356 181.25542,173.43144 0 0 0 144.0308,-117.70328 181.25542,173.43144 0 0 0 8.8703,-53.59125 181.25542,173.43144 0 0 0 -0.3007,-3.70055 c 0.032,-0.17512 0.3007,-1.51371 0.3007,-1.51371 z" />
    <path
       id="path9020-2-3-8"
       style="opacity:0.134146;fill:none;fill-opacity:1;stroke:url(#linearGradient70397);stroke-width:5.36717;stroke-opacity:1;stop-color:#000000"
       d="m 1486.7613,553.21995 c -9.3914,0 -16.9514,7.56007 -16.9514,16.95143 v 39.77318 c 0,0.88642 0.089,1.74788 0.2187,2.59687 l -0.2187,0.0104 -0.2768,108.93544 c 30.1258,-40.29027 68.1756,-69.23614 95.7973,-86.93034 l -0.328,-25.91748 -0.4135,0.0175 v -38.48493 c 0,-9.39137 -7.56,-16.95143 -16.9514,-16.95143 z" />
    <path
       id="ellipse1123-3-3-7-8"
       style="display:inline;opacity:0.134146;fill:none;fill-opacity:1;stroke:url(#linearGradient70399);stroke-width:5.36717;stroke-opacity:1;stop-color:#000000"
       d="m 1547.6375,553.21995 c 2.3479,0 4.5824,0.47369 6.6118,1.3292 -2.0294,-0.85551 -4.2639,-1.3292 -6.6118,-1.3292 z m 17.6929,81.33683 c -27.6217,17.6942 -65.6715,46.64007 -95.7973,86.93034 l -0.3758,146.64819 c 0,0 0.2688,1.33859 0.3006,1.51371 a 181.25542,173.43144 0 0 0 -0.3006,3.70055 181.25542,173.43144 0 0 0 42.1787,110.41154 c 23.2646,-7.02461 51.3509,-26.07899 83.8072,-66.90366 a 91.931705,103.66767 0 0 1 -27.2398,-50.03083 c 0.12,-0.45868 0.2386,-0.83944 0.3588,-1.30186 l -1.3053,-102.86352 v -39.05903 a 181.25542,173.43144 0 0 0 -0.492,0.31434 z m -53.9944,349.20433 a 181.25542,173.43144 0 0 0 18.0756,18.07899 181.25542,173.43144 0 0 1 -18.0756,-18.07899 z m 95.1446,-57.02187 a 91.931705,103.66767 0 0 0 3.3247,2.38502 91.931705,103.66767 0 0 1 -3.3247,-2.38502 z m 14.276,8.82936 a 91.931705,103.66767 0 0 0 6.3213,2.6208 91.931705,103.66767 0 0 1 -6.3213,-2.6208 z m 16.0767,6.07874 a 91.931705,103.66767 0 0 0 17.1667,2.69597 91.931705,103.66767 0 0 1 -17.1667,-2.69597 z m -106.6495,60.82156 a 181.25542,173.43144 0 0 0 19.9412,14.8568 181.25542,173.43144 0 0 1 -19.9412,-14.8568 z m 21.7147,15.8956 a 181.25542,173.43144 0 0 0 21.1645,11.4706 181.25542,173.43144 0 0 1 -21.1645,-11.4706 z m 24.2876,12.7076 a 181.25542,173.43144 0 0 0 21.5847,7.9922 181.25542,173.43144 0 0 1 -21.5847,-7.9922 z m 27.0074,9.2394 a 181.25542,173.43144 0 0 0 20.5529,4.4591 181.25542,173.43144 0 0 1 -20.5529,-4.4591 z" />
    <path
       id="ellipse1123-2-5-3-5"
       style="display:inline;opacity:0.134146;fill:none;fill-opacity:1;stroke:url(#linearGradient70401);stroke-width:5.36717;stroke-opacity:1;stop-color:#000000"
       d="m 1824.3002,553.52406 c 0.3485,0.064 0.6846,0.15763 1.0251,0.2426 -0.3415,-0.0845 -0.6756,-0.17911 -1.0251,-0.2426 z m 2.8874,0.81666 c 0.3765,0.14188 0.7542,0.28374 1.1173,0.45103 -0.3651,-0.16743 -0.7387,-0.30936 -1.1173,-0.45103 z m 2.7916,1.35993 c 0.295,0.17845 0.6088,0.32743 0.8918,0.5228 -0.2834,-0.19568 -0.5961,-0.34433 -0.8918,-0.5228 z m 0.8918,0.5228 c -19.2105,10.37154 -57.7869,33.35977 -88.0374,65.21569 l -1.2985,102.47741 a 181.25542,173.43144 0 0 0 -0.492,-0.31434 v 39.05903 l -0.4237,33.3049 c 31.2772,-13.00791 75.609,-40.39411 97.7928,-95.9989 l -0.2221,-87.41556 -0.2187,-0.0104 c 0.1298,-0.84899 0.2187,-1.71044 0.2187,-2.59687 v -39.77322 c 0,-5.80381 -2.8966,-10.89506 -7.3191,-13.94794 z M 1549.7936,962.9827 c -6.9933,5.37239 -13.7003,9.68847 -20.1121,13.10056 6.4118,-3.41209 13.1188,-7.72817 20.1121,-13.10056 z" />
  </g>
</svg>
