<?xml version="1.0" encoding="UTF-8" standalone="no"?>
<!-- Created with Inkscape (http://www.inkscape.org/) -->

<svg
   width="512"
   height="512"
   viewBox="0 0 512 512"
   version="1.1"
   id="svg5"
   inkscape:version="1.1 (c68e22c387, 2021-05-23)"
   sodipodi:docname="univai_icon.svg"
   xmlns:inkscape="http://www.inkscape.org/namespaces/inkscape"
   xmlns:sodipodi="http://sodipodi.sourceforge.net/DTD/sodipodi-0.dtd"
   xmlns="http://www.w3.org/2000/svg"
   xmlns:svg="http://www.w3.org/2000/svg">
  <sodipodi:namedview
     id="namedview7"
     pagecolor="#505050"
     bordercolor="#ffffff"
     borderopacity="1"
     inkscape:pageshadow="0"
     inkscape:pageopacity="0"
     inkscape:pagecheckerboard="1"
     inkscape:document-units="px"
     showgrid="false"
     units="px"
     inkscape:zoom="0.67081229"
     inkscape:cx="-218.39194"
     inkscape:cy="398.77027"
     inkscape:window-width="1920"
     inkscape:window-height="1057"
     inkscape:window-x="1358"
     inkscape:window-y="-8"
     inkscape:window-maximized="1"
     inkscape:current-layer="g1125" />
  <defs
     id="defs2" />
  <g
     inkscape:label="Foreground"
     inkscape:groupmode="layer"
     id="g1125"
     style="display:inline">
    <path
       id="ellipse1123"
       style="fill:#8946ed;fill-opacity:1;stroke:none;stroke-width:5.36717;stroke-opacity:1;stop-color:#000000"
       d="m 440.4122,155.96724 c -22.1838,55.60479 -66.51563,82.99099 -97.79281,95.9989 l -0.88156,69.55862 c 0.12015,0.46242 0.23872,0.84318 0.35879,1.30186 a 91.931705,103.66767 0 0 1 -66.63375,74.46193 91.931705,103.66767 0 0 1 -19.46288,3.05476 91.931705,103.66767 0 0 1 -58.85677,-27.48586 c -32.45637,40.82467 -60.54266,59.87905 -83.80727,66.90366 a 181.25542,173.43144 0 0 0 139.07625,63.0186 181.25542,173.43144 0 0 0 3.58779,-0.27676 181.25542,173.43144 0 0 0 3.5878,0.27676 181.25542,173.43144 0 0 0 28.35376,-2.13558 181.25542,173.43144 0 0 0 144.0308,-117.70331 181.25542,173.43144 0 0 0 8.87039,-53.59125 181.25542,173.43144 0 0 0 -0.3007,-3.70055 c 0.0319,-0.17512 0.30066,-1.51371 0.3007,-1.51371 z" />
    <path
       id="path9020"
       style="fill:#6b89e9;fill-opacity:1;stroke:none;stroke-width:5.36717;stroke-opacity:1;stop-color:#000000"
       d="m 88.761338,9.2199522 c -9.391439,0 -16.951448,7.5600668 -16.951448,16.9514288 v 39.77318 c 0,0.886423 0.0888,1.747881 0.218685,2.596865 L 71.80989,68.551873 71.533119,177.48731 C 101.65887,137.19704 139.70872,108.25117 167.33042,90.55697 l -0.32803,-25.917478 -0.41345,0.01749 V 26.172046 c 0,-9.391362 -7.56005,-16.9514287 -16.95142,-16.9514287 z" />
    <path
       id="ellipse1123-3"
       style="display:inline;fill:#3c55a9;fill-opacity:1;stroke:none;stroke-width:5.36717;stroke-opacity:1;stop-color:#000000"
       d="m 149.63752,9.2199522 c 2.34784,0 4.58235,0.4736866 6.61178,1.3291968 -2.02943,-0.8555102 -4.26394,-1.3291968 -6.61178,-1.3291968 z m 17.6929,81.3368228 c -27.6217,17.694205 -65.67155,46.640075 -95.797301,86.930345 l -0.375857,146.64819 c 0,0 0.268846,1.33859 0.300686,1.51371 a 181.25542,173.43144 0 0 0 -0.300686,3.70055 181.25542,173.43144 0 0 0 42.178688,110.41154 c 23.26461,-7.02461 51.3509,-26.07899 83.80727,-66.90366 a 91.931705,103.66767 0 0 1 -27.23985,-50.03083 c 0.12002,-0.45868 0.23859,-0.83944 0.35879,-1.30186 l -1.30527,-102.86352 v -39.05903 a 181.25542,173.43144 0 0 0 -0.49204,0.31434 z M 113.33595,439.76111 a 181.25542,173.43144 0 0 0 18.07561,18.07902 181.25542,173.43144 0 0 1 -18.07561,-18.07902 z m 95.14468,-57.02187 a 91.931705,103.66767 0 0 0 3.32467,2.38502 91.931705,103.66767 0 0 1 -3.32467,-2.38502 z m 14.27596,8.82936 a 91.931705,103.66767 0 0 0 6.32133,2.6208 91.931705,103.66767 0 0 1 -6.32133,-2.6208 z m 16.07669,6.07874 a 91.931705,103.66767 0 0 0 17.16671,2.69597 91.931705,103.66767 0 0 1 -17.16671,-2.69597 z M 132.1838,458.46886 a 181.25542,173.43144 0 0 0 19.94124,14.85684 181.25542,173.43144 0 0 1 -19.94124,-14.85684 z m 21.71465,15.89559 a 181.25542,173.43144 0 0 0 21.16451,11.47068 181.25542,173.43144 0 0 1 -21.16451,-11.47068 z m 24.2876,12.70761 a 181.25542,173.43144 0 0 0 21.58479,7.99222 181.25542,173.43144 0 0 1 -21.58479,-7.99222 z m 27.00747,9.2394 a 181.25542,173.43144 0 0 0 20.5529,4.4591 181.25542,173.43144 0 0 1 -20.5529,-4.4591 z" />
    <path
       id="ellipse1123-2"
       style="display:inline;fill:#3c55a9;fill-opacity:1;stroke:none;stroke-width:5.36717;stroke-opacity:1;stop-color:#000000"
       d="m 426.30024,9.5240624 c 0.34849,0.064036 0.68457,0.157628 1.02507,0.2425997 -0.34155,-0.084498 -0.67557,-0.1791104 -1.02507,-0.2425997 z m 2.88732,0.8166536 c 0.37651,0.141883 0.7542,0.283748 1.11734,0.451032 -0.36509,-0.167424 -0.73871,-0.309359 -1.11734,-0.451032 z m 2.79163,1.359936 c 0.29503,0.178446 0.60882,0.327431 0.89182,0.522795 -0.28345,-0.195679 -0.5961,-0.344331 -0.89182,-0.522795 z m 0.89182,0.522795 c -19.21047,10.371539 -57.78693,33.35977 -88.03743,65.215693 l -1.29844,102.47741 a 181.25542,173.43144 0 0 0 -0.49204,-0.31434 v 39.05903 l -0.42371,33.3049 c 31.27718,-13.00791 75.60901,-40.39411 97.79281,-95.9989 l -0.2221,-87.415562 -0.21869,-0.01045 c 0.12982,-0.848984 0.21869,-1.710442 0.21869,-2.596865 V 26.171137 c 0,-5.803807 -2.89657,-10.895052 -7.31909,-13.947935 z M 151.7936,418.9827 c -6.99335,5.37239 -13.7003,9.68847 -20.1121,13.10056 6.4118,-3.41209 13.11875,-7.72817 20.1121,-13.10056 z" />
  </g>
</svg>
