<?xml version="1.0" encoding="UTF-8" standalone="no"?>
<!-- Created with Inkscape (http://www.inkscape.org/) -->

<svg
   width="512"
   height="512"
   viewBox="0 0 512 512"
   version="1.1"
   id="svg5"
   inkscape:version="1.1 (c68e22c387, 2021-05-23)"
   sodipodi:docname="univai_logo_2.svg"
   inkscape:export-filename="C:\Users\Muyoba Lutlas\Documents\PotentialThings\Practice\Vite\reactonthebeginnings\src\assets\univai_logo.png"
   inkscape:export-xdpi="96"
   inkscape:export-ydpi="96"
   xmlns:inkscape="http://www.inkscape.org/namespaces/inkscape"
   xmlns:sodipodi="http://sodipodi.sourceforge.net/DTD/sodipodi-0.dtd"
   xmlns="http://www.w3.org/2000/svg"
   xmlns:svg="http://www.w3.org/2000/svg">
  <sodipodi:namedview
     id="namedview7"
     pagecolor="#505050"
     bordercolor="#ffffff"
     borderopacity="1"
     inkscape:pageshadow="0"
     inkscape:pageopacity="0"
     inkscape:pagecheckerboard="1"
     inkscape:document-units="px"
     showgrid="false"
     units="px"
     inkscape:zoom="0.67081229"
     inkscape:cx="307.09038"
     inkscape:cy="470.32531"
     inkscape:window-width="1305"
     inkscape:window-height="1003"
     inkscape:window-x="1470"
     inkscape:window-y="38"
     inkscape:window-maximized="1"
     inkscape:current-layer="g1125"
     inkscape:snap-global="false" />
  <defs
     id="defs2" />
  <g
     inkscape:label="Foreground"
     inkscape:groupmode="layer"
     id="g1125"
     style="display:inline">
    <path
       id="rect10088"
       style="fill:#002c2c;fill-opacity:1;stroke:none;stroke-width:3.00094;stroke-opacity:1;stop-color:#000000"
       d="M 54.693359 189.32617 C 52.618505 189.32617 50.594549 189.51761 48.640625 189.88281 C 46.686701 190.24801 44.803209 190.78639 43.009766 191.48047 C 41.216322 192.17455 39.511381 193.02508 37.917969 194.01172 C 36.324557 194.99835 34.842112 196.12041 33.488281 197.36328 C 32.134451 198.60615 30.910636 199.96886 29.835938 201.43164 C 28.761239 202.89442 27.836094 204.45909 27.080078 206.10547 C 26.324062 207.75185 25.735674 209.47979 25.337891 211.27344 C 24.940107 213.06709 24.732422 214.92548 24.732422 216.83008 L 24.732422 295.17383 C 24.732422 297.07843 24.940107 298.93694 25.337891 300.73047 C 25.735674 302.524 26.324062 304.25227 27.080078 305.89844 C 27.836094 307.54461 28.761239 309.10778 29.835938 310.57031 C 30.910636 312.03284 32.134451 313.39607 33.488281 314.63867 C 34.842112 315.88127 36.324557 317.00386 37.917969 317.99023 C 39.511381 318.97661 41.216322 319.82566 43.009766 320.51953 C 44.803209 321.2134 46.686701 321.75211 48.640625 322.11719 C 50.594549 322.48227 52.618505 322.67383 54.693359 322.67383 L 457.30664 322.67383 C 459.38149 322.67383 461.40545 322.48227 463.35938 322.11719 C 465.3133 321.75211 467.19679 321.2134 468.99023 320.51953 C 470.78368 319.82566 472.48862 318.97661 474.08203 317.99023 C 475.67544 317.00386 477.15789 315.88127 478.51172 314.63867 C 479.86555 313.39607 481.08936 312.03284 482.16406 310.57031 C 483.23876 309.10778 484.16391 307.54461 484.91992 305.89844 C 485.67594 304.25227 486.26433 302.524 486.66211 300.73047 C 487.05989 298.93694 487.26758 297.07843 487.26758 295.17383 L 487.26758 216.83008 C 487.26758 214.92548 487.05989 213.06709 486.66211 211.27344 C 486.26433 209.47979 485.67594 207.75185 484.91992 206.10547 C 484.16391 204.45909 483.23876 202.89442 482.16406 201.43164 C 481.08936 199.96886 479.86555 198.60615 478.51172 197.36328 C 477.15789 196.12041 475.67544 194.99835 474.08203 194.01172 C 472.48862 193.02508 470.78368 192.17455 468.99023 191.48047 C 467.19679 190.78639 465.3133 190.24801 463.35938 189.88281 C 461.40545 189.51761 459.38149 189.32617 457.30664 189.32617 L 54.693359 189.32617 z " />
    <path
       style="display:inline;fill:#ffffff;fill-opacity:1;stroke:none;stroke-width:4.23103;stroke-opacity:1;stop-color:#000000"
       d="m 257.16437,234.8066 h 26.08848 l 13.74036,44.07985 c 1.54377,4.98336 2.44331,9.22324 2.70061,12.71625 h 0.30971 c 0.36022,-3.30671 1.31313,-7.40689 2.8569,-12.29709 l 14.04719,-44.49901 h 25.47194 l -29.40849,71.5348 h -27.78758 z"
       id="path6022" />
    <path
       style="display:inline;fill:#ffffff;fill-opacity:1;stroke:none;stroke-width:4.23103;stroke-opacity:1;stop-color:#000000"
       d="m 229.59522,234.8066 h 24.39227 v 71.5348 h -24.39227 z"
       id="path6020" />
    <path
       style="display:inline;fill:#ffffff;fill-opacity:1;stroke:none;stroke-width:4.23103;stroke-opacity:1;stop-color:#000000"
       d="m 196.38355,233.05922 c 17.49596,0 26.24192,9.82602 26.24192,29.48002 v 43.80216 h -24.31412 v -39.74942 c 0,-11.08448 -4.37299,-16.62753 -13.12096,-16.62753 -4.2196,0 -7.69303,1.46705 -10.42033,4.40117 -2.7273,2.93412 -4.09,6.66085 -4.09,11.17846 V 306.3414 H 146.2878 v -71.5348 h 24.39226 v 11.31731 h 0.30684 c 5.81482,-8.70924 14.28162,-13.06469 25.39665,-13.06469 z"
       id="path6018" />
    <path
       style="display:inline;fill:#ffffff;fill-opacity:1;stroke:none;stroke-width:4.23103;stroke-opacity:1;stop-color:#000000"
       d="m 439.22207,206.16229 c 0,-7.52129 24.93065,-7.52129 24.93065,0 0,37.42421 -0.0993,70.32921 0,100.17911 0.025,7.52126 -24.95838,7.52126 -24.93065,0 0.0993,-26.93908 0,-64.49569 0,-100.17911 z"
       id="path6014" />
    <path
       id="path6012"
       style="display:inline;fill:#ffffff;fill-opacity:1;stroke:none;stroke-width:4.23103;stroke-opacity:1;stop-color:#000000"
       d="m 378.70815,199.87635 c -6.54961,0.006 -13.11634,2.10524 -14.83468,6.28496 -14.70479,35.7681 -26.51673,68.15897 -40.29275,100.18012 -3.26731,7.59463 24.00606,7.68128 27.01593,0 3.2702,-8.3456 7.79657,-22.28284 7.79657,-22.28284 h 39.36573 l 7.87363,22.28284 c 2.75859,7.80771 30.53382,7.61086 27.17003,0 -12.79839,-28.95734 -24.82999,-63.11138 -39.36573,-100.18012 -1.64804,-4.20285 -8.17913,-6.29074 -14.72873,-6.28496 z m -1.02093,24.17007 h 0.62123 c 0.36021,3.49301 0.97683,6.49841 1.85162,9.01337 l 11.88749,33.6716 h -28.3282 l 12.0416,-33.95272 c 1.02918,-2.88756 1.66897,-5.79812 1.92626,-8.73225 z" />
    <path
       style="display:inline;fill:#ffffff;fill-opacity:1;stroke:none;stroke-width:4.23103;stroke-opacity:1;stop-color:#000000"
       d="m 47.847224,206.16229 h 25.008802 v 58.12431 c 0,16.20755 6.997344,24.31125 20.994096,24.31125 13.739438,0 20.609108,-7.82426 20.609108,-23.47294 v -58.96262 h 24.93355 v 56.7961 c 0,30.08643 -15.49084,45.13037 -46.468897,45.13037 -30.051854,0 -45.076659,-14.69465 -45.076659,-44.08247 z"
       id="path6010" />
    <path
       style="display:inline;fill:#ffffff;fill-opacity:1;stroke:none;stroke-width:4.23103;stroke-opacity:1;stop-color:#000000"
       d="m 241.94621,200.78394 c 4.16814,0 7.53769,1.0479 10.11063,3.1437 2.62438,2.0958 3.93657,4.79616 3.93657,8.10288 0,3.35329 -1.31219,6.10197 -3.93657,8.24434 -2.57294,2.14238 -5.94249,3.21444 -10.11063,3.21444 -4.11668,0 -7.48913,-1.09622 -10.11352,-3.28517 -2.62438,-2.23553 -3.93656,-4.96005 -3.93656,-8.17361 0,-3.30672 1.31218,-6.00708 3.93656,-8.10288 2.62439,-2.0958 5.99684,-3.1437 10.11352,-3.1437 z"
       id="path6008" />
    <g
       id="g10051"
       transform="matrix(1.115776,0,0,1.115776,-145.67937,-453.63355)"
       style="display:inline">
      <path
         id="rect81090-9"
         style="color:#000000;display:inline;fill:#6b89e9;fill-opacity:1;stroke-width:3.58769;-inkscape-stroke:none"
         d="m 169.46649,564.31836 c -15.71052,0 -28.35819,13.18914 -28.35819,29.57031 v 84.22656 c 0,16.38116 12.64767,29.56641 28.35819,29.56641 h 381.06702 c 15.71052,0 28.35819,-13.18525 28.35819,-29.56641 v -84.22656 c 0,-16.38117 -12.64767,-29.57031 -28.35819,-29.57031 z m 10.11451,11.92578 h 360.838 c 14.87649,0 26.8519,10.9946 26.8519,24.65039 v 70.21485 c 0,13.65578 -11.97541,24.64648 -26.8519,24.64648 H 179.581 c -14.87649,0 -26.8519,-10.99071 -26.8519,-24.64648 v -70.21485 c 0,-13.65579 11.97541,-24.65039 26.8519,-24.65039 z" />
      <path
         style="display:inline;fill:#ffffff;fill-opacity:1;stroke:none;stroke-width:3.79201;stroke-opacity:1;stop-color:#000000"
         d="m 361.04356,617.0057 h 23.38147 l 12.31462,39.506 c 1.38358,4.46627 2.18979,8.26621 2.42039,11.39678 h 0.27757 c 0.32284,-2.9636 1.17688,-6.63833 2.56046,-11.02111 l 12.58962,-39.88167 h 22.8289 l -26.35699,64.11215 h -24.90426 z"
         id="path6022-5" />
      <path
         style="display:inline;fill:#ffffff;fill-opacity:1;stroke:none;stroke-width:3.79201;stroke-opacity:1;stop-color:#000000"
         d="m 336.33506,617.0057 h 21.86126 v 64.11215 h -21.86126 z"
         id="path6020-1" />
      <path
         style="display:inline;fill:#ffffff;fill-opacity:1;stroke:none;stroke-width:3.79201;stroke-opacity:1;stop-color:#000000"
         d="m 306.56953,615.43963 c 15.68053,0 23.51898,8.80645 23.51898,26.42109 v 39.25713 h -21.79122 v -35.62491 c 0,-9.93432 -3.91923,-14.90221 -11.75949,-14.90221 -3.78176,0 -6.89478,1.31482 -9.33909,3.94449 -2.44431,2.62967 -3.66561,5.9697 -3.66561,10.01855 v 36.56408 H 261.67185 V 617.0057 h 21.86125 v 10.14299 h 0.275 c 5.21146,-7.80554 12.79972,-11.70906 22.76143,-11.70906 z"
         id="path6018-2" />
      <path
         style="display:inline;fill:#ffffff;fill-opacity:1;stroke:none;stroke-width:3.79201;stroke-opacity:1;stop-color:#000000"
         d="m 524.21045,591.3336 c 0,-6.74086 22.34378,-6.74086 22.34378,0 0,33.54097 -0.089,63.03166 0,89.78425 0.0224,6.74083 -22.36863,6.74083 -22.34378,0 0.089,-24.14381 0,-57.80344 0,-89.78425 z"
         id="path6014-8" />
      <path
         id="path6012-5"
         style="display:inline;fill:#ffffff;fill-opacity:1;stroke:none;stroke-width:3.79201;stroke-opacity:1;stop-color:#000000"
         d="m 469.97562,585.69991 c -5.87,0.005 -11.75535,1.88679 -13.29539,5.63281 -13.17898,32.05671 -23.76528,61.08661 -36.11186,89.78516 -2.92829,6.80659 21.51512,6.88425 24.21268,0 2.93087,-7.47964 6.98758,-19.97071 6.98758,-19.97071 h 35.28103 l 7.05664,19.97071 c 2.47235,6.99756 27.36555,6.82113 24.35079,0 -11.47039,-25.95265 -22.25356,-56.56277 -35.28103,-89.78516 -1.47704,-3.76675 -7.33044,-5.63799 -13.20044,-5.63281 z m -0.91499,21.66211 h 0.55677 c 0.32283,3.13057 0.87547,5.82412 1.65949,8.07812 l 10.65401,30.17774 h -25.38879 l 10.79213,-30.42969 c 0.92239,-2.58794 1.49579,-5.19649 1.72639,-7.82617 z" />
      <path
         style="display:inline;fill:#ffffff;fill-opacity:1;stroke:none;stroke-width:3.79201;stroke-opacity:1;stop-color:#000000"
         d="m 173.44574,591.3336 h 22.41382 v 52.09317 c 0,14.52581 6.27128,21.78865 18.81569,21.78865 12.3138,0 18.47065,-7.01239 18.47065,-21.03732 v -52.8445 h 22.34638 v 50.90278 c 0,26.96458 -13.88347,40.44752 -41.64716,40.44752 -26.93359,0 -40.39938,-13.16989 -40.39938,-39.50835 z"
         id="path6010-5" />
      <path
         style="display:inline;fill:#ffffff;fill-opacity:1;stroke:none;stroke-width:3.79201;stroke-opacity:1;stop-color:#000000"
         d="m 347.40448,586.51332 c 3.73564,0 6.75556,0.93917 9.06152,2.8175 2.35207,1.87834 3.5281,4.2985 3.5281,7.26211 0,3.00534 -1.17603,5.46881 -3.5281,7.38888 -2.30596,1.92008 -5.32588,2.8809 -9.06152,2.8809 -3.68952,0 -6.71204,-0.98247 -9.06411,-2.94429 -2.35207,-2.00356 -3.5281,-4.44538 -3.5281,-7.32549 0,-2.96361 1.17603,-5.38377 3.5281,-7.26211 2.35207,-1.87833 5.37459,-2.8175 9.06411,-2.8175 z"
         id="path6008-1" />
    </g>
  </g>
</svg>
