<?xml version="1.0" encoding="UTF-8" standalone="no"?>
<!-- Created with Inkscape (http://www.inkscape.org/) -->

<svg
   width="512"
   height="512"
   viewBox="0 0 512 512"
   version="1.1"
   id="svg5"
   inkscape:version="1.1 (c68e22c387, 2021-05-23)"
   sodipodi:docname="univai_logo.svg"
   inkscape:export-filename="C:\Users\Muyoba Lutlas\Documents\PotentialThings\Practice\Vite\reactonthebeginnings\src\assets\univai_logo.png"
   inkscape:export-xdpi="96"
   inkscape:export-ydpi="96"
   xmlns:inkscape="http://www.inkscape.org/namespaces/inkscape"
   xmlns:sodipodi="http://sodipodi.sourceforge.net/DTD/sodipodi-0.dtd"
   xmlns="http://www.w3.org/2000/svg"
   xmlns:svg="http://www.w3.org/2000/svg">
  <sodipodi:namedview
     id="namedview7"
     pagecolor="#505050"
     bordercolor="#ffffff"
     borderopacity="1"
     inkscape:pageshadow="0"
     inkscape:pageopacity="0"
     inkscape:pagecheckerboard="1"
     inkscape:document-units="px"
     showgrid="false"
     units="px"
     inkscape:zoom="0.67081229"
     inkscape:cx="307.09038"
     inkscape:cy="470.32531"
     inkscape:window-width="1305"
     inkscape:window-height="1003"
     inkscape:window-x="1470"
     inkscape:window-y="38"
     inkscape:window-maximized="1"
     inkscape:current-layer="g1125"
     inkscape:snap-global="false" />
  <defs
     id="defs2" />
  <g
     inkscape:label="Foreground"
     inkscape:groupmode="layer"
     id="g1125"
     style="display:inline">
    <g
       id="g9887"
       transform="matrix(0.83569738,0,0,0.83569738,-44.851047,-36.284376)">
      <g
         id="g48516"
         style="stroke:none;stroke-opacity:1"
         transform="matrix(1.3072381,0,0,1.1831362,25.347035,28.567392)">
        <path
           id="ellipse1123"
           style="fill:#8946ed;fill-opacity:1;stroke:none;stroke-width:4.21255;stroke-opacity:1;stop-color:#000000"
           d="m 400.74022,141.24711 c -17.41147,43.64272 -52.20634,65.13742 -76.75497,75.34698 l -0.69191,54.59471 c 0.0943,0.36294 0.18736,0.66179 0.2816,1.02179 a 72.154746,81.365991 0 0 1 -52.29905,58.44319 72.154746,81.365991 0 0 1 -15.2759,2.3976 72.154746,81.365991 0 0 1 -46.19511,-21.57292 c -25.47414,32.04219 -47.51832,46.99747 -65.77809,52.5109 a 142.26255,136.12172 0 0 0 109.15724,49.46162 142.26255,136.12172 0 0 0 2.81596,-0.21722 142.26255,136.12172 0 0 0 2.81597,0.21722 142.26255,136.12172 0 0 0 22.25411,-1.67616 142.26255,136.12172 0 0 0 113.04594,-92.38219 142.26255,136.12172 0 0 0 6.96213,-42.06235 142.26255,136.12172 0 0 0 -0.23601,-2.90446 c 0.025,-0.13745 0.23598,-1.18807 0.23601,-1.18807 z" />
        <path
           id="path9020"
           style="fill:#6b89e9;fill-opacity:1;stroke:none;stroke-width:4.21255;stroke-opacity:1;stop-color:#000000"
           d="m 124.73883,26.069075 c -7.37109,0 -13.30474,5.933695 -13.30474,13.304725 v 31.216909 c 0,0.69573 0.0697,1.371865 0.17164,2.03821 l -0.17164,0.0082 -0.21723,85.500521 c 23.6449,-31.62276 53.50921,-54.3416 75.18875,-68.229307 l -0.25746,-20.341938 -0.32451,0.01373 V 39.374322 c 0,-7.37103 -5.93368,-13.304725 -13.30472,-13.304725 z" />
        <path
           id="ellipse1123-3"
           style="display:inline;fill:#3c55a9;fill-opacity:1;stroke:none;stroke-width:4.21255;stroke-opacity:1;stop-color:#000000"
           d="m 172.51892,26.069075 c 1.84276,0 3.59657,0.371784 5.18941,1.043251 -1.59284,-0.671467 -3.34665,-1.043251 -5.18941,-1.043251 z m 13.88669,63.839105 c -21.67954,13.88771 -51.54385,36.60655 -75.18875,68.22931 l -0.295,115.10026 c 0,0 0.21101,1.05062 0.236,1.18807 a 142.26255,136.12172 0 0 0 -0.236,2.90446 142.26255,136.12172 0 0 0 33.10493,86.65908 c 18.25977,-5.51343 40.30395,-20.46871 65.77809,-52.5109 a 72.154746,81.365991 0 0 1 -21.37983,-39.26787 c 0.0942,-0.36 0.18726,-0.65885 0.2816,-1.02179 l -1.02447,-80.73484 v -30.65639 a 142.26255,136.12172 0 0 0 -0.38619,0.24672 z m -42.37882,274.08118 a 142.26255,136.12172 0 0 0 14.18706,14.18974 142.26255,136.12172 0 0 1 -14.18706,-14.18974 z m 74.67652,-44.75495 a 72.154746,81.365991 0 0 0 2.60945,1.87194 72.154746,81.365991 0 0 1 -2.60945,-1.87194 z m 11.20482,6.92993 a 72.154746,81.365991 0 0 0 4.96145,2.057 72.154746,81.365991 0 0 1 -4.96145,-2.057 z m 12.61817,4.77104 a 72.154746,81.365991 0 0 0 13.47369,2.116 72.154746,81.365991 0 0 1 -13.47369,-2.116 z m -83.70634,47.73719 a 142.26255,136.12172 0 0 0 15.65135,11.66074 142.26255,136.12172 0 0 1 -15.65135,-11.66074 z m 17.04325,12.47603 a 142.26255,136.12172 0 0 0 16.61146,9.00303 142.26255,136.12172 0 0 1 -16.61146,-9.00303 z m 19.06269,9.97386 a 142.26255,136.12172 0 0 0 16.94133,6.27288 142.26255,136.12172 0 0 1 -16.94133,-6.27288 z m 21.19745,7.25176 a 142.26255,136.12172 0 0 0 16.13142,3.49983 142.26255,136.12172 0 0 1 -16.13142,-3.49983 z" />
        <path
           id="ellipse1123-2"
           style="display:inline;fill:#3c55a9;fill-opacity:1;stroke:none;stroke-width:4.21255;stroke-opacity:1;stop-color:#000000"
           d="m 389.66412,26.307763 c 0.27352,0.05026 0.5373,0.123718 0.80455,0.19041 -0.26807,-0.06632 -0.53024,-0.140579 -0.80455,-0.19041 z m 2.26618,0.64097 c 0.29551,0.11136 0.59195,0.222706 0.87697,0.354003 -0.28655,-0.131407 -0.57979,-0.242808 -0.87697,-0.354003 z m 2.19108,1.067377 c 0.23156,0.140058 0.47784,0.256992 0.69996,0.410328 -0.22247,-0.153583 -0.46786,-0.270256 -0.69996,-0.410328 z m 0.69996,0.410328 c -15.07778,8.140345 -45.35542,26.183195 -69.09823,51.18606 L 324.704,160.04429 a 142.26255,136.12172 0 0 0 -0.38619,-0.24672 v 30.65639 l -0.33256,26.14013 c 24.54863,-10.20956 59.3435,-31.70426 76.75497,-75.34698 l -0.17432,-68.610144 -0.17164,-0.0082 c 0.10189,-0.666345 0.17164,-1.34248 0.17164,-2.03821 V 39.373608 c 0,-4.555253 -2.27344,-8.551236 -5.74456,-10.947362 z M 174.21117,347.68094 c -5.48889,4.21664 -10.753,7.60422 -15.78545,10.28228 5.03245,-2.67806 10.29656,-6.06564 15.78545,-10.28228 z" />
      </g>
      <path
         style="display:inline;fill:#ffffff;fill-opacity:1;stroke:none;stroke-width:3.27132;stroke-opacity:1;stop-color:#000000"
         d="m 360.90027,580.30805 h 20.1709 l 10.62367,34.08134 c 1.1936,3.85299 1.8891,7.13115 2.08804,9.83186 h 0.23946 c 0.27851,-2.55666 1.01528,-5.72681 2.20887,-9.50778 l 10.86091,-34.40542 h 19.69421 l -22.73785,55.30876 h -21.48459 z"
         id="path6022" />
      <path
         style="display:inline;fill:#ffffff;fill-opacity:1;stroke:none;stroke-width:3.27132;stroke-opacity:1;stop-color:#000000"
         d="m 339.58455,580.30805 h 18.85944 v 55.30876 h -18.85944 z"
         id="path6020" />
      <path
         style="display:inline;fill:#ffffff;fill-opacity:1;stroke:none;stroke-width:3.27132;stroke-opacity:1;stop-color:#000000"
         d="m 313.90619,578.95702 c 13.5274,0 20.28954,7.59722 20.28954,22.79315 v 33.86664 h -18.79902 v -30.73317 c 0,-8.57022 -3.38107,-12.85595 -10.14476,-12.85595 -3.26248,0 -5.94805,1.13428 -8.05672,3.40286 -2.10868,2.26858 -3.16228,5.14999 -3.16228,8.64288 v 31.54338 h -18.85943 v -55.30876 h 18.85943 v 8.75023 h 0.23724 c 4.49586,-6.73374 11.04216,-10.10126 19.636,-10.10126 z"
         id="path6018" />
      <path
         style="display:inline;fill:#ffffff;fill-opacity:1;stroke:none;stroke-width:3.27132;stroke-opacity:1;stop-color:#000000"
         d="m 501.66232,558.16105 c 0,-5.81526 19.2757,-5.81526 19.2757,0 0,28.93538 -0.0768,54.37663 0,77.45576 0.0193,5.81523 -19.29714,5.81523 -19.2757,0 0.0768,-20.82857 0,-49.86631 0,-77.45576 z"
         id="path6014" />
      <path
         id="path6012"
         style="display:inline;fill:#ffffff;fill-opacity:1;stroke:none;stroke-width:3.27132;stroke-opacity:1;stop-color:#000000"
         d="m 454.8746,553.30093 c -5.06397,0.004 -10.14119,1.62771 -11.46977,4.85936 -11.36934,27.65493 -20.50201,52.69866 -31.15325,77.45654 -2.5262,5.87196 18.56083,5.93896 20.88798,0 2.52842,-6.45259 6.0281,-17.22848 6.0281,-17.22848 h 30.43651 l 6.08767,17.22848 c 2.13287,6.03671 23.60792,5.88451 21.00713,0 -9.89537,-22.38903 -19.19787,-48.796 -30.43651,-77.45654 -1.27423,-3.24953 -6.32388,-4.86383 -11.38786,-4.85936 z m -0.78935,18.68764 h 0.48032 c 0.2785,2.7007 0.75526,5.02439 1.43162,6.96889 l 9.19108,26.03396 h -21.90259 l 9.31024,-26.25131 c 0.79573,-2.23259 1.2904,-4.48295 1.48933,-6.75154 z" />
      <path
         style="display:inline;fill:#ffffff;fill-opacity:1;stroke:none;stroke-width:3.27132;stroke-opacity:1;stop-color:#000000"
         d="m 199.06195,558.16105 h 19.33613 v 44.94013 c 0,12.53124 5.41015,18.7968 16.23206,18.7968 10.62296,0 15.9344,-6.0495 15.9344,-18.14864 v -45.58829 h 19.27794 v 43.9132 c 0,23.262 -11.97709,34.89357 -35.92848,34.89357 -23.23528,0 -34.85205,-11.3615 -34.85205,-34.08336 z"
         id="path6010" />
      <path
         style="display:inline;fill:#ffffff;fill-opacity:1;stroke:none;stroke-width:3.27132;stroke-opacity:1;stop-color:#000000"
         d="m 349.134,554.00265 c 3.22269,0 5.82794,0.81021 7.81726,2.43062 2.0291,1.62043 3.04365,3.70827 3.04365,6.26494 0,2.59267 -1.01455,4.71787 -3.04365,6.37429 -1.98932,1.65643 -4.59457,2.48532 -7.81726,2.48532 -3.1829,0 -5.79039,-0.84757 -7.8195,-2.54 -2.0291,-1.72845 -3.04364,-3.83498 -3.04364,-6.31961 0,-2.55667 1.01454,-4.64451 3.04364,-6.26494 2.02911,-1.62041 4.6366,-2.43062 7.8195,-2.43062 z"
         id="path6008" />
    </g>
  </g>
</svg>
